<svg fill="none" xmlns="http://www.w3.org/2000/svg" viewBox="0 0 300 300">
  <path d="M253.167 109.167L62.083 136.139l-8.722-9.083-7.889-8.223-5.75-40.75 204.972-28.916 8.473 60z" fill="#fff"/>
  <path d="M270.722 223.083v-31.194h3.834v-30.75h-3.834v-42.306h-30.778v42.278h-24.361l6.528-30.75h-30.722l-3.667 17.278c-3.528-4.306-7.889-7.833-13.111-10.556-7.305-3.805-15.889-5.694-25.722-5.694-9.945 0-18.611 1.889-26 5.611-5.5 2.778-10.028 6.5-13.639 11.083v-4.889H78.472v30.75h-24.36l6.527-30.75h-.056l1.5-7.055 191.084-26.972-8.473-60-54.444 7.694 1.25 8.889-15.083 2.139-1.25-8.889-4.223.611 7.112 50.445-14.223 2-.777-5.5c-.889 2.083-2.389 3.833-4.473 5.222-2.083 1.416-4.444 2.305-7.111 2.666-3.444.5-6.666.028-9.639-1.361-2.972-1.389-5.444-3.611-7.416-6.611-1.973-3-3.25-6.61-3.834-10.805-.583-4.14-.333-7.917.723-11.334 1.055-3.416 2.833-6.166 5.305-8.278 2.472-2.11 5.445-3.416 8.889-3.888 2.556-.362 4.972-.167 7.278.61 2.305.778 4.222 1.945 5.75 3.584l-2.084-14.722L39.722 78.083l5.75 40.75H35.028l-13.083 61.528H22l-5.167 24.361H78.445v42.722h30.749v-42.75h22.223v-23.833a31.866 31.866 0 01-.139-2.917c0-5.75 1.472-9.972 4.389-12.722 2.972-2.722 7.361-4.111 13.222-4.111 5.75 0 10.028 1.361 12.917 4.111 2.861 2.75 4.305 6.972 4.305 12.722 0 11.306-5.75 16.973-17.222 16.973-3.472 0-6.445-.5-8.889-1.445v30.472a70.2 70.2 0 008.889.556c9.833 0 18.417-1.889 25.75-5.722 7.305-3.806 12.972-9.195 16.944-16.167 1.889-3.305 3.306-6.889 4.306-10.75h44.083v31.195l30.75.027zM198.167 74.805c1.361-3.444 3.611-6.25 6.722-8.444 3.111-2.167 6.917-3.583 11.444-4.222 4.473-.639 8.5-.306 12.056.944 3.583 1.25 6.472 3.361 8.75 6.25 2.278 2.89 3.694 6.528 4.305 10.834.612 4.305.223 8.166-1.138 11.61-1.362 3.417-3.584 6.223-6.667 8.417-3.083 2.195-6.861 3.612-11.333 4.25-4.528.639-8.584.334-12.167-.888-3.583-1.223-6.528-3.306-8.778-6.25-2.25-2.945-3.694-6.556-4.305-10.89-.639-4.277-.25-8.166 1.111-11.61zm-20.639-2.083l14.444-2.028 5.167 36.667-14.445 2.028-5.166-36.667zM51.333 86.583l13.584-1.916 1.833 6.666c.611-2.639 1.889-4.778 3.833-6.389 1.945-1.639 4.25-2.639 6.917-3 1.972-.277 3.528-.194 4.667.223l1.528 10.75.416-1.584c1.084-3.472 2.861-6.305 5.306-8.472 2.472-2.194 5.389-3.528 8.805-4 2.667-.361 5.167-.139 7.556.694 2.361.834 4.305 2.112 5.805 3.862l-.722-5.195 14.222-2 5.723 40.556-14.195 2-.778-5.5c-.889 2.083-2.389 3.833-4.472 5.222-2.083 1.417-4.444 2.306-7.111 2.667-3.472.5-6.667.083-9.611-1.25-2.944-1.334-5.417-3.445-7.389-6.417-1.972-2.944-3.25-6.5-3.833-10.667-.39-2.722-.417-5.305-.084-7.722-2.166-.556-4.194-.722-6.11-.444-6.056.86-8.695 4.194-7.862 10l2.861 20.361-14.444 2.028-4.084-28.89c-.694-4.388-1.472-8.25-2.36-11.583z" fill="#000"/>
  <path d="M214.139 90c1.5 1.056 3.583 1.389 6.25 1.028 5.222-.722 7.472-3.667 6.722-8.806-.361-2.61-1.306-4.444-2.778-5.5-1.472-1.055-3.528-1.416-6.139-1.027-2.666.36-4.555 1.277-5.722 2.722-1.166 1.444-1.555 3.444-1.194 6.055.416 2.611 1.361 4.472 2.861 5.528zM151.889 85.028c-2.611.36-4.5 1.305-5.722 2.778-1.195 1.5-1.639 3.444-1.278 5.889.361 2.5 1.333 4.36 2.944 5.527 1.611 1.167 3.695 1.584 6.25 1.222 2.556-.361 4.417-1.305 5.611-2.833 1.195-1.528 1.612-3.555 1.25-6.055-.333-2.445-1.305-4.223-2.916-5.361-1.584-1.112-3.639-1.5-6.139-1.167zM100.5 106.111c1.556 1.111 3.667 1.5 6.25 1.111 2.556-.361 4.417-1.305 5.611-2.833 1.195-1.528 1.611-3.556 1.25-6.056-.361-2.555-1.333-4.389-2.889-5.555-1.583-1.167-3.639-1.556-6.194-1.195-2.5.361-4.361 1.334-5.611 2.917-1.25 1.583-1.695 3.667-1.334 6.194.39 2.528 1.334 4.306 2.917 5.417z" fill="#000"/>
</svg>
