<?xml version="1.0" encoding="utf-8"?>
<svg xmlns="http://www.w3.org/2000/svg" id="Calque_1" x="0" y="0" version="1.1" viewBox="0 0 1366 768" xml:space="preserve">
  <style>
    .st1{fill:#fff}
  </style>
  <path fill="#fff" fill-rule="evenodd" d="M141 553h1l-1-1-17-3h-2l-1 1-8-7-9-1h1l-16-2-8-19v-16l-5-6v-18l-3-4 1-17-26-1-9-4-3-1-13-3-2-1 1-8 8-8-2-9 3-2v-4l3-3-3-22 2-6-2-2v-2h2v-9l11-15 2-5 8-19h84-3l22-1-1 1 24-9 2-9 6-6 2-13 7-4 5-7 6-2 5-9 1-8 8-8 8-22 3-11 2-1-7-33 5-4 1-7-3-10 12-22 17-25h11l6 5 9 2 6 5 17 1 21 4 32 10 8-2 36 21h7l23 6 16-1 9 4h7l21 5 4-1 5 2h12l9 1 5-1 19 7 12 2 6-1 29-1 14 2 704 134 3 5-6 27-8 40-1 12-2 13 3 29 1 5-4 120-2 7 2 1-2 1-2-2-3 4 1 2-4 2v1l-10 3-1129-44-4-3zm1158 11" clip-rule="evenodd"/>
  <path d="M1204 336h5l-1 10c0 8-4 16-5 24l-7 28-7 31-7 34-4 22-4 18-5 28-4 16-9-1c-4-1-9-2-13-1l-4 1c5 2 9 0 13 2-2 4-4 5-8 6 5 1 8 3 9 8 1 4-1 7-8 11l6 3 3 4c2-4 4-7 9-8-5-1-9-4-9-9s2-9 7-10l-7-3c1-2 2-2 3-2l2 2c2-2 3-1 5 0l2 1c0 2 2 2 4 3 2 2 3 3 3 6s-1 8-6 10l-1 1 6 4c2 2 2 4 2 6l-3 7 9 1c-2-2-4-4-4-6v-8l6-5-1-1c-5-1-8-7-7-12 1-2 2-3 4-3h4c2 0 4-1 6 1h4c4 2 7 1 11 1 3-1 7 0 10 1 1 5 0 7-7 11 3 1 6 1 7 4l1 7c0 3-5 7-9 8-2 0-4 0-6-2l-5-5-2 5-6 4h15c3-1 6-2 10 0v1c3 1 5 1 8-1 2-3 6-3 9-3l5 3 2 2c3-3 5-6 10-6v7l24 2v3l-3 1-9 1h-40c-1-2-2-1-3 0h-1c-3-2-6-1-9-1l-1-1c-5 2-9 0-14 0l-4-1h-11l-11-1h-11l-11-1h-2l-5-1h-7l-20-2-15-1-15-1h-15l-12-1-22-1-18-1h-5l-17-1h-11l-9-1h-13l-4-1c-6 0-12 1-18-1h-8l-7-1h-14l-21-1h-15c-4-2-8 0-11-1h-18l-4-1h-17l-12-1-11-1-15-1-16-1h-36l-10-1-11-1h-16l-18-1h-14l-7-1h-20l-15-2-6 1h-4c-4-1-7 0-11-2h-13l-7 1h-2l-4-1-17-1h-22l-17-1-29-2h-36l-6-1h-3c-1 0-2 1-4-1-4 2-7 0-10 0h-16l-15-1h-15l-16-1-14-1h-24l-8-1h-8l-10-1a471 471 0 00-38-1h-13l-20-1h-14l-12-1h-16l-31-1h-4l-8-1-16-1h-6c-2-4-5-4-9-5H99l-6-1 5-2c4-2 8-1 11 1l3 1c2 1 2 1 4-1 4-5 12-6 17 0l2 3 2-3c1-4 4-6 9-6 4 0 7 3 9 7l1 3h2c0-4-1-7 2-10l6-2c4 0 6 1 9 4 2 2 1 6 1 9h5c-3-5-4-9 0-13 2-2 8-3 11-1 5 3 6 8 3 14l11 1c-6-3-9-8-6-14 2-4 6-5 11-4 3 1 6 4 7 8 0 4-3 7-8 10l8 1 12-1h7l5 1 4-1c5-3 9-3 14 0l2 2 3-1 1-1c4-6 12-5 16 0l1 2h1l2-3c1-3 5-6 8-6 5 0 8 3 9 7l1 3 3 1c-2-4-1-7 1-9 2-3 4-3 7-4 3 0 6 2 8 4 2 3 1 6 1 9l4 1-1-3c-2-4-1-8 2-11 3-2 7-2 10-1 3 2 6 4 5 8l-1 7 14 1h7l11-1c3-1 6-1 9 1 3 1 6 1 9-1 3-4 10-3 13 0l3 3c3-4 5-8 10-8 6 0 8 4 11 8v-2c2-6 5-8 10-8s8 3 9 8v2l2 1c0-3-1-7 2-9l3-3 5-1c6 2 9 4 8 14h5c-4-7-4-11 0-14 3-3 9-3 12 0 4 4 4 8 0 14l3 1h28c4-2 8-2 12 0 3 2 4 2 6 0 3-4 10-5 14 0l3 2 2-3c5-7 13-6 17 1l2 3c0-6 3-9 8-10 2-1 4 0 5 1l4 4 2 5h1v-2-4c2-5 6-7 10-6 6 1 8 5 8 9v4h3c-3-7-2-11 2-14 3-2 8-2 11 1 4 3 5 7 1 14h11c-3-2-6-3-7-7v-5l2-4c4-3 11-3 14 0 4 5 3 11-4 16 5 1 10 1 15-1 3-2 7-1 10 1s4 2 6 0c6-5 11-4 15 0l2 2c3-4 5-7 10-8 5 0 8 3 10 7 2-3 2-6 6-7l5-1c6 1 8 5 9 11l1-3c-1-7 6-12 12-10 4 2 7 6 6 11l-1 2 5 1c-2-3-4-6-2-10 0-2 2-4 4-5 4-2 9-2 12 2s2 9-3 13h15l7 1c4 1 7 1 10-1 4-2 7-1 11 1 3 2 3 2 5 0 4-4 10-5 14-2l2 2 1 3 3-5c3-5 11-6 15-1l2 5c2-8 6-11 12-10s8 5 7 12h3c-1-3-2-6 0-9l5-4c5-2 9 0 13 6l1-2c3-6 10-8 15-4 4 3 4 9 0 13l-2 1c4 2 10 1 15 0-4-1-7-2-8-5v-6c0-4 5-7 9-7s8 2 9 7c1 4-2 8-7 11l7 2 5-1 2-1c5-3 10-2 14 2l1 1 2-3c4-3 8-4 13-2l5 5c2-4 5-7 9-8l-6-3c-2-2-3-4-3-7 1-5 4-8 8-9 6-1 9 3 10 6 2 4 0 9-7 13 5 1 8 3 9 8 2-7 8-11 14-9 5 1 7 6 5 11l1 1 1-1c-2-4-1-8 3-11 3-3 9-3 12-1s5 7 3 11l-2 2 7 1c-2-4-4-7-3-11l5-5c4-3 10-2 12 2 2 2 2 5 1 8 0 2-2 4-4 6 3 1 9 1 14-1l-2-1c-4-1-6-4-6-7 0-4 2-8 5-9l2-1c5-1 9 1 11 5s0 9-4 11l-3 2 7 2h5l4-3c4-1 8-1 11 2l2 2 9-7c-4-1-7-2-8-6l-1-5c1-4 7-8 10-8 4 0 9 4 9 7 2 5-1 9-8 12l6 3 4 5c4-7 4-7 10-9-5-2-10-4-10-10 0-3 3-7 8-10l-6-3c-2-1-3-3-3-6l3-1v-2l-2-1h-3c-2 1-3 0-4-1-1-2-3-2-6-2l-1 2c3 1 3 3 3 5l2-2 6 1 1 2-2 5c-4 6-12 6-16 0l-2-2-3 5-5 4c4 1 7 2 8 7v5c-2 5-6 7-11 6-4 0-7-3-8-8 0-4 2-8 10-10l-4-1c-5-2-7-6-6-11 0-3 2-4 5-5h1l3 1 4-1c-1-2-2-3-4-3l-12-4c-4-2-10-4-15-3-6 2-11 1-16 0h-2l-9 2-2 3-4 3 5 2c-4 4-11 4-15-1l4-1h4v-2l-1-2-4 3c0-3-1-5-3-6l-3 2v3l-5-1-3-2-2 1h-3l-2 3h4l2 3 1-2 1 3 2-3 4 2c-4 6-13 6-17 0l1-4 3-4-3-4-3 3 1 4h-6c0 2 2 2 3 2 2 1 3 2 1 5s-6 5-9 4c-4 0-8-3-8-7v-2l2-2c-3-2-4-2-9 0l4 2 2 2c-1 7-7 11-13 9-5-2-8-7-6-12h5c2 1 3 0 5-1v-2h-1l-10-1-4-1-7 1h-10l-1-2-3-3c-1 0-3 2-4 1h-2c-3 2-7 2-10 0h-1l-7-2h-2l-2-1c-3 2-6 0-9 1-1 0-4 0-5-2-2 2-4 0-7 0 1 3 4 2 6 4h2c2 0 3 1 3 3l-1 3c-5 5-13 3-16-3-1-3 0-5 1-8h3l3-3-3-4c-4 3-7 3-10-1l-1 4v2c8 6 7 14-2 18 5 1 9 5 9 10 0 4-3 8-8 9s-9-1-11-7l-5 8-7 1c-4 0-6-3-7-7-2-5 1-9 5-11l-5-4 6-3 3-1c-2-2-6 0-7-4l-4 5c-1-1-4 0-5-2-3 1-4-3-7-2l-4-2c-3 2-6 1-9 0l-7-2h-2c-2-2-5-2-8-1h-8l-6-2c-3 1-7 0-11-2-1 0-3-2-5-1h-1l-4-1c-2-3-4-4-7-3l-3-1-17 1h-6l-1-1-7 1h-7c-4 1-7 0-11-2-2 2-6 2-9 1h-1c-4 1-6-1-9-2-5 3-9 0-14 0l-1-2h-4l-5 2 2 3-4 1-8-4-7-4-3 2c-1 1-2 2-3 1-4-2-8-2-11-5h-3c-3 2-6 3-8 2h-8l-4-4-4 3c-2 0-2-2-5-1-3 2-6 0-9-2l-2-3c-2 2-3 2-5 2h-4c-5 2-7 1-11-3l-8 2h-1c-2-1-4-2-5-1l-4 2c1-2 0-4-2-5l-4 2 1 3-8 3 1 3c-2 2-5 3-8 3s-5-1-6-4h-4c0-2-3-3-1-6l-5 2h-2l-10-3-5-3c-4 0-6-3-8-5l-2-2-2 2h-4l-6 1c-3 1-5-1-7-3l-2-2-5 4-1-2h-3l-1 2h-7-3l2-3-2-3c-4 2-4 2-4 6-5-3-10-1-15-4 1-2-1-3-2-5l-4 3 3 4h-2l-2-1-5-1-4-2-2-1-2-2-3-2-4 3c0 2-1 2-2 2-3-2-6-2-9-2h-3c2-3-2-3-2-6l-4 4 1 2-1 1h-3c-1 2-3 1-5 1 0-3 2-1 3-2-2-3-5 0-6 0l-8-8-1-1-18-1-6-2-1 2c-2-1-3-2-6-1l-5-1-1 1-3-3-4-1-7-1h-3-1c-3 1-7 1-9 3l-1 4h-5l-1-3 1-3c-2 0-2 2-3 3h2l-1 2c-2 2-4 1-7 0l-1-2c0-2-2-3-3-4l-4 2 1 3h-1l-5-3c-3-3-7-5-11-5l-1-1-4-2-3-1c-2-1-4-4-7-3l-7 2c-3 2-7 3-10 3l-5 4-6-1c2-3 2-3-1-5l-2 1-2 1 3 4-2 1h-2c-4-3-8-2-12-3l-5-1 3-2-3-4-4 3 2 4-6-2h-15l4-4-3-3-4 2 2 4-3 1c-3-2-7-2-10-3-2 0-3-1-4-3l-3-4-4 3h-5c-3 1-5 1-8-1l-6-4-1 2-5 2c-2 0-4 3-2 5v5c0 2-2 4-3 5-6 4-14 1-15-6-1-4-1-4 3-7l2 1 2 1c2-2 4 0 7-1v-3c-4 0-6-3-9-6-3 2-3 2-4 5-4-1-7 1-11-1h-6l1-3-2-4-4 3 2 5h-6l-1-3-5 1c-1-2-1-3-3-3l-3-2-2-3-4 3 2 3h-1c-3-2-6 0-9-1l-3-1-4-1c1-3-2-4-2-6l7-3v-5l1-8-1-1c-2-2-1-2 0-4h2l1-1c0-3-1-6 2-7h1c-3-5-1-10-2-15v-2c-2-3-1-5 0-7v-5l1-3-1-3v-3c-1-2 0-3 2-4l3-1v-5c-1-1 0-2 2-2v-1l3-4 1-2 7-7v-2h5l4-3-5-8c1-2 3-3 6-3h9c3 0 6 2 8 1 10 1 19-1 28-1l14 2 4-1c5-2 9-1 14-1l2 2 3 4 1-2c4-4 9-4 13-4l6 5 2 3 6-5-2-3c5 2 6-3 9-5 2 1 1 3 1 5 3 1 5 1 7-2 3-5 9-4 12 1l1 2 9-1h6l24 1h11l-1-5c0-3 2-6 5-7 2-1 6 0 8 2s3 5 1 8v2h5l1-2c0-3 4-6 7-6s6 2 7 6c0 1 1 2 3 2s4 0 6-2 6-2 8 0 4 2 6 2h5c3 0 4 0 5 3l1 1h1c4-5 9-5 14-4l5 4 2 3 6-5v-2h7c1-6 3-9 7-9 5 0 7 2 8 9h3l3-1c4-5 9-5 12 0 1 1 2 2 3 1h48c-2-4-1-7 3-10 2-1 5-1 7 1 3 2 3 5 2 9h6c1-4 3-6 8-6 3 0 5 1 6 5l-3 1 1 2c2-2 4-2 6-2 2 1 4 0 5-1 2-2 5-2 7 0l2 6h1c3-6 9-4 14-4 2 0 3 1 4 3l2 2c4-3 7-6 12-6l-2-6c-1-2 0-5 3-6 4-2 8-1 9 5 1 2 0 4-2 6l-5 3 6 7 7-5-2-3 3-1v-1c-1-4 2-7 5-7 4-1 6 0 8 4 0 2 0 4-2 6l-4 3 5 6 7-5-4-5c3 0 4-1 5-3 2-4 7-4 10-1l2 4 11-1h3l4 1h32l-1-3c-1-3-1-6 2-7 2-2 6-2 8-1 2 2 3 5 1 8v2l5 1 3-4c0-2 4-4 6-4 3 0 5 1 6 4v3l5 2 2-2 4-3 6 2 2 1c3 0 4 2 5 5l1 1c4-7 14-9 20 1l8-5v-2h9l-3 2c2 2 5 4 6 8l8-7-3-2c-3-3-4-5-2-8s6-4 9-2 3 4 2 8v1h3l3 1-6 3c2 3 6 4 6 9l8-7-5-6-2-1c1-3 3-5 6-5s5 2 7 6c3-1 6 1 10-1h6l2 1 31-1h1l-1-2c-2-3-2-6 1-8s7-2 9 1v6l-1 2 9 1c0-4 2-8 6-8 4 1 6 3 6 8h6l2-1c3-3 7-3 10 0l3 1 6 1 4 2 1 3c6-8 18-7 20 2l8-6v-1h10l-1-3c-1-3-1-6 2-7 2-2 5-2 7 0s3 5 1 7l-1 2h9c0-4 3-6 6-6 3-1 5 1 7 6h5l3-1c3-2 5-2 8 0l3 1h36l4 1c2-3 6 0 9-2v-2c0-4 3-6 6-6s6 3 5 6l-1 3 1 3 2-2 2-2c4-1 4 0 6-3l4-1c2 0 4 1 5 3l-2 1 5 6c1-2 3-5 6-5 3-1 6-2 9 0l6 7c1-4 4-5 7-6l3-2h7l-4 2c3 2 6 4 7 8l5-4 5-2-4-4 3-1c-3-4-3-6-1-9h7c3 2 3 5 0 10h6l-8 4c4 2 7 4 8 7l10-5-6-5 1-3c1-3 3-5 6-5 2 0 4 2 5 5v1l6 1c-1 3-1 4-8 7 3 1 6 3 7 7l5-3 6-3c-4-1-6-3-7-6l-1-2 2-2c3-1 5-1 7 1l4 1 22-1h24c3 0 5 1 4 5l3-4-3-3c-2-2-1-4 1-5 2-2 4-2 6-1 2 2 3 4 2 8h5c5 0 6 0 8 5 1-3 3-5 5-6zM840 544c5 0 8 3 9 7l4-6 5-3-8-4-1-4 3-1h2l6-8c-8 1-12 2-14 9 2 1 2 2 1 4-1 3-3 5-7 6zm294 38c1-5 5-7 9-8-5-1-8-3-9-8l-4 6-6 4c6 1 5 0 10 6zm7-234c-4-3-7-6-8-11-1 5-5 7-9 9l4 3 3 5c2-4 6-5 10-6zm-9 200c-1 4-4 6-8 8l6 3 3 4 4-5 5-4c-5 0-7-3-10-6zm45-205l-4 5-6 3c4 2 5 5 6 9 3-4 6-6 10-7-4-3-5-6-6-10zm-16 7l-7-8-3 4-6 3c4 1 6 4 7 7 3-4 6-5 9-6zm33 212l-4 5-4 2c4 0 6 4 9 8 1-4 3-7 6-9l-4-2-3-4zm-163-206c-4-1-5-5-6-7l-8 6c3 2 4 5 5 7l9-6zm-249-7c-4-1-5-5-6-8l-8 7 6 8c2-3 4-5 8-7zm416-3h-1c-1 5-5 6-9 7l4 3 3 4 8-6-3-3-2-5zm-177 23c-2 3-5 5-9 6 3 3 6 5 6 8l8-6-5-8zm109 20l-5-7-8 5 5 7 8-5zm-75-9l5 7 7-5-5-8-7 6zm-78-2l4-4 4-1-6-8-8 6 6 7zm195-12l-8 5 5 8 7-6-4-7zm-357-6l3-4 4-2-6-7-8 5 7 8zm108 5c-2-2-5-4-5-8-2 4-5 5-8 7l6 7 7-6zm244 21l-8 6 5 7 8-5-5-8zm-186-29l7-5-3-4-2-4-7 6 5 7zm86-4l-8 7 5 7 8-6c-3-2-5-5-5-8zm67 15c-2-2-4-5-4-8l-9 7 3 3 2 4 8-6zm-339-24c-1 3-4 5-7 6l6 7 7-5-6-8zm-47 2l3 3 3 4 3-4 4-2-6-7-7 6zm178-1l-3-5-1-1h-2l-6 4 3 4 2 4 7-6zm-51 21l7-6c-3-1-4-5-5-7l-7 6 5 7zm226-2l5 7 7-5-5-7-7 5zm-13-7l-8 5 5 7 7-6-4-6zm-124 13l-6-7-7 6 5 6 8-5zm79-6l7-5-4-7-8 5 5 7zm45 20l-5-7-8 5 6 7 7-5zm-88-16l-8 5 6 6 7-4-5-7zm143 1l5 7 7-5-5-7-7 5zm-248-1l8-5-6-7-7 5 5 7zm40-22l5 7 6-6-4-7-7 6zm216 45l-5-7-8 6 5 6 8-5zm-315-42l-7 6 6 6 6-5-5-7zm356 47l-4-7-8 5 5 7 7-5zm-249-28l-5-7-7 5 5 7 7-5zm98 5l-7 5 5 6 8-5-6-6zm-40-14l8-6-3-2-2-4-7 6 4 6zm-152-2l6 6 6-5-5-6-7 5zm348 18l-5-7c-2 3-4 5-7 5l5 7 7-5zm-93 4l-8 6 5 6 7-5-4-7zm-515-25l6-5-5-8c-1 4-5 5-7 7l6 6zm-402-6l7-5-4-4c-1-1-2-2-3-1l-5 3 5 7zm449 6l-5-8-3 4-4 2 5 7 7-5zm324 1l7-6c-3-2-4-4-4-8-2 4-5 5-8 7l5 7zm-585-11l5 7 6-6-3-6h-3l-5 5zm683 51l-7 6 5 6 7-5-5-7zm-484-48l-5-7-6 6 5 6 6-5zm325 1l3-3 4-2c-5-6-8-6-12-2l5 7zm-223 10l-5-6-6 5 5 7 6-6zm-381-9l-6 6 5 6 6-5-5-7zm-70-2l6 6 6-5-6-6-6 5zm501 17l5 6 6-5-5-7-6 6zm141 16l5 6 6-5-4-7-7 6zm258 29l-5-7-3 4-3 2 4 6 7-5zm-676-56l-5-7-7 5 6 7 6-5zm30 4l5 6 6-5-5-7-6 6zm125-7l5 7 6-5-5-7-6 5zm314 36l-4-7-6 5 4 7 6-5zm-394-9l-6 5 5 6 6-5-5-6zm-4-16l5 7 6-6-5-6-6 5zm494 41l7-5-4-6-7 5 4 6zm-236-32l-5-7-7 5 5 7 7-5zm-399 1l6-5-5-7-7 5 6 7zm-42-4l3-3 3-3-6-6-6 5 6 7zm830 47l-5-7-7 6 5 5 7-4zm-726-36l7-5-6-6-6 5 5 6zm-231-39l-7 5 6 6 6-4-5-7zm602 40l6-5-5-6-6 5 5 6zm-330 4l7-5-6-6-6 5 5 6zm-86-36l5 6 6-5-4-7-7 6zm190 28l6-5-4-7-6 5 4 7zm387 22l7-5-5-6-7 5 5 6zm-304-25l-6 5 5 6 6-4-5-7zm-24-17l5 6 6-5-5-6-6 5zm-279-12l-2-2-1-1c-2-3-3-3-5-1l-4 2 5 7 7-5zm770 203l-2-3c-2-3-6-2-9-2l-7 4h1l17 1zM316 363l6-4-6-7-6 5 6 6zm-42-16l-6 5 5 6 3-2 3-2-5-7zm310 48l6-5-4-6-7 5 5 6zm592 20l5 6 6-5-4-6-7 5zm-104-12l5 6 6-5-4-6-7 5zm-386-44l5 6 6-4-5-7-6 5zm314 36l-4-6-7 5 5 5 6-4zm-373-16l6-5-4-6-7 5 5 6zm-380-30l5 6 6-4-6-6-5 4zm459 13l5 6 6-5-5-7-6 6zm-278-12l-5-6-6 5 5 6 6-5zm302 29l-3 3-3 2 5 6 5-5-4-6zm-105 20l3-2 3-2-5-7-6 5 5 6zm121-33l5 6 6-5-5-6c-1 2-3 4-6 5zm416 68l-4-6-7 5 3 3 2 3 6-5zM147 359l-5-6-6 4 5 6 6-4zm-69-14l-6 5 4 6 6-5-4-6zm280 23l6-4-5-7-6 5 5 6zm746 39l-5-6-6 5 4 5 7-4zm-599-42l6-5-5-6-6 5 5 6zm161 39l5-5-4-6-6 5 5 6zm388 38l-4-6-3 2-4 2 5 6 6-4zm-139-37l-4-6-6 5 4 6 6-5zm57 27l-4-6-6 5 4 6 6-5zm-19-37l6-5-4-6-6 5 4 6zm-59-18l-6 5 4 6 6-5-4-6zm-342-12l-5-6-6 4 5 6 6-4zm-90 15l6-4-6-6-5 5 5 5zm696 74l-4-6-7 5 4 5 7-4zm-127-56l4 6 7-5-5-5-6 4zm-61 19l6-5-5-6-6 5 5 6zm-183-46l5 6 6-5-5-6-6 5zm-278 10l-5-6-6 4 5 6 6-4zm607 68l-5-6-6 5 4 5 7-4zm-68-29l4 6 6-4-4-6-6 4zm-583-71l-6 5 5 6 5-5-4-6zm102 12l-6 5 5 6 6-5-5-6zm40 15l6-4-5-6-6 4 5 6zm509 47l-6 5 3 6 7-5-4-6zm-696-48l6-4-5-6-6 5 5 5zm-235-7l6-4-5-6-6 5 5 5zm221 1l-5-7-6 5 5 6 6-4zm-332 8l6-5-5-6-6 5 5 6zm692 38l6-5-4-6-6 5 4 6zm247-4l-7 5 5 5 6-4-4-6zm-370-36l5 6 5-5-4-6-6 5zm364 66l6-4-5-6-6 4 5 6zm-232-51l-5-6-6 5 5 6 6-5zm-630-10l-5-6-6 4 5 6 6-4zm727 41l-4-6-7 5 5 6 6-5zm-221-24l-4-6-6 5 5 5 5-4zm176-22l5 6 6-5-5-6-6 5zm-288 9l5 6 6-5-5-6-6 5zm367 46l6-5-4-6-7 5 5 6zm-53-57l-6 4 4 6 6-4-4-6zm286 43l6-5-4-6-6 5 4 6zm-324-22l-5-6-6 5 5 6 6-5zm-245-6l-5-6-6 4 5 6 6-4zm122 13l-5-5-6 4 5 6 6-5zm172-1l5 5 6-4-5-6-6 5zm-160-18l4 5 6-4-4-6-6 5zm224 5l5 5 6-4-5-6-6 5zm-317 5l-5-6-6 5 5 6 6-5zm-318-11l6-4-5-6-6 5 5 5zm228 27l6-5-5-5-5 4 4 6zm616 43l-5-5-6 4 4 6 7-5zm4-20l-4-5-7 4 5 6 6-5zm-66-12l-7 4 4 5 7-4-4-5zm93 36l4 5 6-4-4-5-6 4zm-418-73l-6 4 5 6 5-4-4-6zm429 48l-7 5 4 5 6-4-3-6zm-452-30l-6 5 5 5 6-4-5-6zM98 358l5-4c0-2-1-2-2-3l-2-3-6 4 5 6zm936 81l-5-5-6 4 4 5 7-4zm-915-78l6-5-5-5-5 4 4 6zm976 85l-4-5-7 4 5 6 6-5zm-865-83l-6 5 5 5 6-4-5-6zm572 50l4 6 6-5-4-5-6 4zm-505-16l-5-6-5 5 5 6 5-5zm387-17l4 5 6-4-4-6-6 5zm-495 5l-5-6-5 4 4 6 6-4zm152-3l-5-6-5 5 4 5 6-4zm649 37l6-5-4-5-6 4 4 6zm105 2l-6 4 4 6 6-4-4-6zm-205-24l-6 5 5 5 6-4-5-6zm61 7l-6 5 4 5 6-4-4-6zM48 369l4 5 6-4-5-6-5 5zm737 22l4 5 6-4-5-6-5 5zm203 38l-6 4 5 6 5-5-4-5zm-143-31l4 5 6-4-5-6-5 5zm-468-7l5-5-4-5-5 4 4 6zm448 4l4 6 5-5-4-5-5 4zm-349 2l4 6 6-4-5-6-5 4zm230 11l6-5-5-5-6 4 5 6zm358 35l4 5 7-4-3-3-2-2-6 4zm-138-11l6-4-4-6-6 4 4 6zm-180-20l6-4-5-6-5 4 4 6zm206 18l-4-6-6 5 4 5 6-4zm-164-23l-6 4 4 5 6-4-4-5zm-624-52l-6 5 5 5 5-3-4-7zm869 59l-6 4 4 5 6-4-4-5zm-699-7l5-5-5-5-5 4 5 6zm601 1l-4-6-6 5 4 5 6-4zm-708-14l6-4-5-6-5 5 4 5zm208-1l4 5 6-4-5-6-5 5zm417 26l-5-6-5 5 4 5 6-4zM96 369l-5 4 5 6 5-5-5-5zm275 37l5 5 2-2 3-2-5-6-5 5zm511 16l4 5 6-4-5-5-5 4zm-770-46l3 3 2 2c6-4 6-4 2-9l-1-1-6 5zm321 37l4 5 6-4-5-6-5 5zm-271-36l-5 4 4 5 6-4-5-5zm89-1l5-4-5-6-5 5 5 5zm110 8l-4-5-5 4 4 5 5-4zm461 32l4 5 6-4-4-6-6 5zm-239-1l5-5-4-5-6 4 5 6zm-372-28l-5-5-5 4 5 5 5-4zm268 26l-5 5 4 5 6-4-5-6zm674 61l-4-6-6 5 4 5 6-4zM207 370l5-4-5-5-5 4 5 5zm60 3l5 5 5-4-5-5-5 4zm127 15l4 5 5-4-4-5-5 4zm-76 12l-5-5-4 3 4 6 5-4zm793 69l-4-6-5 5 3 5 6-4zm-67-4l6-3-4-6-6 4 4 5zm57 27l6-4-4-5-5 4 3 5zM424 391l-5-5-5 4 5 5 5-4zm91 32l5 5 5-4-5-6-5 5zm634 71l-4-6-6 4 4 5 6-3zm-683-98l-5-5-5 4 4 5 6-4zm-157-18l5 5 3-2 2-2-4-5-6 4zm41 25l5 6 5-4-5-6-5 4zm-100-16l-5 4 4 6 5-5-4-5zm373 32l5-5-4-5-5 5 4 5zm376 36l4 6 6-5-4-5-6 4zm-587-44l5 5 5-4-4-6-6 5zm164 18l5 5 4-4-4-5-5 4zm392 23l-4-6-5 5 4 5 5-4zm200 28l6-4-5-5-5 4 4 5zm-503-66l-6 4 5 5 5-4-4-5zm499 86l6-4-4-5-6 4 4 5zM276 395l-5-6-5 5 4 5 6-4zm230 6l-4-5-5 4 4 5 5-4zm61 7l-4-5-5 4 4 5 5-4zm-24-7l-5 4 4 5 5-4-4-5zm-151 7l4 5 5-4-4-5-5 4zm508 61l5-4-4-5-5 4 4 5zm100 11l5-4-4-5-5 4 4 5zm-283-36l4 5 5-4-3-5-6 4zm191 1l-4-5-5 4 4 5 5-4zM77 393l-5-5-4 4 4 5 5-4zm680 56l4 5 5-5-4-4-5 4zm-216-28l-5 4 4 5 5-4-4-5zm315 39l4 4 5-4-4-5-5 5zm-352-39l-4-5-5 4 4 5 5-4zm359 24l5-4-4-6-5 5 4 5zm-237-10l-4-5-5 4 4 5 5-4zm174-2l4 5 5-4-4-5-5 4zm-31-3l-4-6-5 5 4 5 5-4zm-311-10l5-4-4-5-5 5 4 4zm262 5l4 5 5-5-4-5-5 5zm81 33l5-4-4-5-5 4 4 5zm-625-33l3 5 6-4-5-5-4 4zm47 10l5-4-4-5-5 4 4 5zm817 50l6-4-4-5-6 4 4 5zm-899-63l-5-5-5 3 4 5 6-3zm507-5l-3-5-6 4 4 5 5-4zm-88 15l5-4-4-5-5 4 4 5zm396 39l3 5 6-4-4-6-5 5zm-13-17l5-4-4-5-5 4 4 5zm-22 8l-5 4 4 5 5-4-4-5zm-782-66l-5 4 3 4 5-3-3-5zm984 74l3 5 6-4-4-5-5 4zm-57-11l-5 4 3 4 6-3-4-5zm-840-54l-4 5 4 4 4-4-4-5zm698 37l-5 4 2 3 2 2 5-4-4-5zm-742-33l4-4-4-4-5 3 5 5zm484 30l-4-5-5 4 4 5 5-4zm14-19l4 5 5-4-4-5-5 4zm397 65l3 3h2l4-2-4-5-5 4zm-368-62l-4-5-5 4 4 5 5-4zm353 56l-5 4 4 4 5-4-4-4zm-273-47l-4-5-5 4 4 5 5-4zm190 21l4 5 5-4-3-5-6 4zm139 37l4 4 6-3-4-5-6 4zm-37-25l4 5 5-4-4-5-5 4zm-145 4l3 4 6-4-4-4-5 4zm-773-45l-5-5-4 4 4 4 5-3zm718 34l-5 4 4 4 5-3-4-5zm-132-30l-4-5-5 4 4 4 5-3zm274 35l6-4-4-5-5 4 3 5zm-421-35l-5 4 4 4 5-3-4-5zm99 19l5-4-4-5-5 4 4 5zm41-4l-4 4 3 4 5-4-4-4zm-409-25l-5 4 4 4 5-3-4-5zm266-6l4 4 5-4-4-4-5 4zm-311 21l-4 4 2 3 1 2 5-4-4-5zm600 10l-4-5-5 4 4 5 5-4zm-111 8l4 4 5-3-4-5-5 4zM51 386l-5 4 4 4 5-4-4-4zm786 71l3 5 5-4-4-4-4 3zm-717-59v-1c-4-4-4-4-8 0l3 5 5-4zm563 38l-5 4 3 5 5-4-3-5zm-313-10l4 5 4-4-4-5-4 4zm-84-9l4 5 4-4-3-5-5 4zm699 57l-4-5-5 4 4 4 5-3zm-165-38l3 4 5-4-4-4-4 4zm324 77c-3-5-3-5-8-1l3 5 5-4zm-712-79l4 4 4-4-4-5-4 5zM75 414l-2-1-1-1c-2-3-2-3-4-1l-2 2 3 5 6-4zm172 3l4-4c-3-5-3-5-7-2v1l3 5zm579 39l-4-4-5 3 4 5 5-4zm22-18l-3-4-6 3 4 5 5-4zm174 36l-6 4 4 4 5-3-3-5zm-692-27l5-4-4-5-5 4 4 5zm807 81l-5 4 4 5 5-4-4-5zM160 398l-4 4 4 4 4-3-4-5zm477 38l4 4 5-3-4-5-2 2-3 2zM52 411c-4-5-3-4-8 0 4 5 5 5 8 0zm216 8l5-4-4-4-5 3 4 5zM98 396l-4-5-4 4 4 4 4-3zm1001 107l-5 4 3 4 5-3-3-5zm-723-55l-4-5-4 4 4 4 4-3zm718 83l5-4-4-4-5 3 4 5zm72-15l-4-4-5 3 3 5 6-4zM204 403l-4 4 4 4 4-3-2-2-2-3zm-90 11l-2 2-2 2c3 5 5 5 8 0l-4-4zm201 6l-4-4-4 3 4 5 4-4zm-109 9l-4-5-4 3 3 5 5-3zm39 8l4-3-3-5-5 4 4 4zm-68 14l4-4c-1-4-3-5-6-2l-2 1 4 5zm345-7l-4-5-4 4 4 4 4-3zM96 417l-4-5-4 4 4 4 4-3zm166 18l4 5 4-4c-3-5-3-5-7-1h-1zm215-1l-4 4 4 5 4-4-4-5zm-82-9l-4 4 3 4 5-3-4-5zm721 101l-5 3 3 4 5-3-3-4zm-686-72l4 4 4-3-4-5-4 4zm657 88l4 4 8-5-12 1zm-507-96l-5 4 4 4 4-4-3-4zm176 47l5-4-4-4-4 3 3 5zm47-19l-4-5-4 4 3 4 5-3zm-347-34l5-3-4-5-5 4 4 4zm15 18l4 5 4-4-3-5-5 4zm-114-33l-3-5-5 4 4 4 4-3zm800 114l4-3-3-4-3 2c-2 0-2 1-1 2l3 3zm-660-94l5-4-4-4-5 3 4 5zm20 14l-5 4 4 4 4-3-3-5zm-161-14l-4-4-5 4 4 4 5-4zm506 35l-4-4-4 3 3 5 5-4zm-139-15l-3-4-4 3 3 5 4-4zm-312-34l4 4 4-3-3-4h-1l-4 3zm544 76l-3 1-2 2c3 5 4 5 8 1l-3-4zm168 4l-3-5-5 4 3 4 5-3zm-267-15l-4 3 3 5 4-4-3-4zm181 8l5-4-4-4-4 4 3 4zm-381-46l3 4 5-4-4-4-4 4zm-118-9l4-3-3-5-4 4 3 4zm463 47l-3-5-5 4 4 4 4-3zm-802-51c-1 2-4 2-3 4 0 1 1 3 3 3 2 1 2-2 4-3l-4-4zm698 43l5-4-4-4-4 4 3 4zm-672-36l-4-5-4 4 3 4 5-3zm666 52l4 4 4-3-3-5-5 4zm-271-54l-5 4 4 4 4-4-3-4zm-7 24l4 4 4-4-3-4-5 4zm187 20l-3-5-5 4 4 4 4-3zm-37-25l-3-4-5 3 4 5 4-4zm-454-25l2-2 2-1c-3-5-3-5-8-2v1l4 4zm729 76l-4-4-4 3 3 4 5-3zm-48-5l3 4 5-3-4-5-4 4zm-417-45l3 4 5-4-4-4-4 4zm148 15l-4-4-4 3 4 4 4-3zm-312-34l4 4 4-3-3-4-5 3zm150-7l-4 3 3 4 4-3-3-4zm-270 15c-3-5-3-5-7-1l3 4 4-3zm369 16c-5 2-5 3-1 7l4-4-2-3h-1zm-528-34c3 5 4 5 7 1-3-4-3-4-7-1zm831 50l-3-4-5 4 3 3 5-3zm97 8l-4 3 3 4 4-3-3-4zm-359-33l4-3-3-4-4 3 3 4zm-307-13l5-3-4-4-4 3 3 4zm424 46l4-3-3-4-5 3 4 4zm-255-31l-4-4-4 3 3 4 5-3zM64 435l3 3 4-2c-2-6-3-6-7-1zm807 67l4 3 4-3-4-4-4 4zm-195-42l3 4 4-3-3-4-4 3zm245 27l-3-4-4 3 3 4 4-3zm53 6l2 4 5-3-2-3-2-1-3 3zm-434-27l-3-4-5 3 4 4 4-3zm201 21l-4-4-4 3 4 4 4-3zm341 18l-4-4-4 3 3 4 5-3zm-208-23l3 4 5-4-4-4-4 4zm-59-7l3 4 4-3-3-4-4 3zm-319-11l3-3-3-4-4 4 4 3zm-130 3l4 4 4-3-4-4-4 3zm268 9c3 4 4 4 7 0l-3-4-4 4zm9-20l-3-3-4 3 3 4 4-4zm31 24l3 4 4-3-3-4-4 3zm-75-24l4-4-4-4-4 4 4 4zm140 14l4-3c-3-4-3-4-7 0l3 3zm339 55l-3-4-5 3 4 4 4-3zm-28-3l3 3 5-3-4-4-4 4zm-32-28l-2 2-2 1c2 4 2 4 7 1l-3-4zm-242 1l4-4-3-4-4 3 3 5zm63 3l-3-4-4 3 3 4 4-3zm-515-35l4 4 4-4-4-4-4 4zm617 26l-3-4-5 3 3 4 5-3zm-487-29l4-3-3-4-4 3 3 4zm-299-12l4-3-3-5-4 4 3 4zm91 6l-3-4-4 3 3 4 4-3zm186 17l-4 3 4 4 4-3-4-4zm410 7l-4-4-3 3 3 4 4-3zm132 39l4-4-3-4-5 3 4 5zm-220-5l4-3-3-4-4 3 3 4zm157-6l3 4 4-3-3-4-4 3zM90 433l-4 4 3 3 4-2-3-5zm428 50l-3-3-4 3 3 4 4-4zm413 25l3 4 4-3-3-4-4 3zm-276-6l4-4-3-3-4 3 3 4zm-395-46l3 3 4-2-3-4-4 3zm515 15l3 4 5-4-4-4-4 4zm-178 5l4-3-4-4-4 3 4 4zM42 432l3 4 4-3-3-4-4 3zm976 86l-4-4-4 3c3 4 4 4 8 1zm-324-36l3 4 4-3-3-4-4 3zm261 49l-3-4-4 3 3 4 4-3zm-485-52l3 3 4-3-4-4-3 4zm249 26l-3-4-4 3 3 4 4-3zm75 12l4-4-4-4-3 4 3 4zm-179-19l3-4-3-4-4 4 4 4zm-265-36l-4 2 3 5 4-3-3-4zm225 24l-4 4 3 3 4-3-3-4zm-467-47l3 4 4-3-3-4-4 3zm286 31l-3-4-4 4 4 3 3-3zm462 49l-2-3-4 3 3 4 3-4zm-549-62l-3 3c2 5 4 4 6 1l-3-4zm206 43l-4 3 3 4 3-3-2-4zm379 27l4-3-3-4-4 4 3 3zm-484-55l3 3 4-3-3-3-4 3zm271 29l-3-4-4 3 3 4 4-3zm132 14l3 3 3-3-3-3-3 3zm-213-23l-3-3-3 2 2 4 4-3zm-104-14l-4 3 3 3 4-2-3-4zm142 15l-4 3 3 3 3-3-2-3zm60 6l-4 3 3 4 3-3-2-4zm78 15l4-3-3-3-4 3 3 3zm-39-11l-3 3 3 4 3-3-3-4zm-282-30l-4 4 4 3 3-3-3-4zm380 48l4-3-4-4-3 3 3 4zm99 4l-3 3 3 3 1-1 2-2-3-3zm-20 4l4-3-3-3-4 2 3 4zm62 4l-3-4-3 3c3 4 4 4 6 1zm-419-48l-4 2 3 4 4-3-3-3zm-17 1l-3-4-4 3 3 3 4-2zm351 89h6l-4-6-2 6zm-394-73l-3-4-3 2 2 4 4-2zm342-161l4-4-6 1 2 3zm315 247h4l-2-5-2 5zm-177-49v1l5 1-2-4h-1c1 2 0 3-2 2zM296 341l3-3h-5v1l2 2zm545 195c2 1 3 1 4-1-1-1-3-1-4 1zm-22-198l-1-1-3 1 2 2 2-2z"/>
  <path d="M1253 451l-1 7-1 5-1 9 1 2c-1 1-2 3-1 5l-1 8-2 11v3 10l-1 11v58l-1 3c-5 1-7-2-9-6l-3 4c-3 5-12 5-16 1l-2-5c1-3 1-7 5-9l1-1v-1c-3-2-6-3-6-8h8l3 1 4 3c2-4 2-8 4-10l9-7-4-1c-3-1-3-2-2-5l3-18 5-32 3-14 1-11c1-4 1-9 3-13h1zm-26 115c5 1 7 4 9 7 1-2 1-4 3-5l5-4c-4 0-6-3-8-6l-4 5-5 3zm14-40v1c1 0 2 0 2-2l-2 1zM192 474c1 2 5 4 7 2 1-2 3-1 5-1h6l3-4c2 1 4 1 6-1l1 2 3-1c2-2 4-1 6-1l3 2 1-2c1 2 4 2 6 2s5 2 6 5l2-1c1-1 2-2 3 0 0 1 1 2-1 3l-1 1c-2 3-7 4-10 2s-5-3-6-6v-1l-3 6c-1 1-2 3-4 3-3 1-7 1-10-2l-5-4-1 2c-2 8-11 9-16 5-2-2-3-4-3-7 0-2 0-3 2-4zM799 548c-3-1-6-2-7-4-3-3-3-6-2-9 0-2 2-3 4-3 3 1 5 0 8 2 3-2 5 1 8 2l-2 6-5 4-3 2c3 0 6 1 8 4 2 2 2 4 2 7-1 4-4 7-9 7-4 1-8-1-9-5-1-5-1-9 7-13z"/>
  <path d="M826 541c-1 3-3 4-5 4 6 3 9 7 9 11-1 4-4 8-9 8-4 1-8-1-10-5-1-3-1-5 1-8l5-5-5-3c-1 0-2-1-2-3-1-1 0-2 1-3h2c2 1 4 2 6 1 3 0 5 1 7 3zM295 478c2 1 1 3 1 5h-2l1 3c2 4 1 8-3 11-2 2-8 2-11 0-5-3-6-12-1-15l2-1 6-1 2 1h2l3-3zM913 533l7 2v1l2 1c5 2 8 6 6 12-1 4-4 5-8 6-3 1-7-1-9-4-1-3-1-8 1-11l5-4c-2 0-4 0-4-3zM149 481c-1-3 1-5 3-7 3 0 5-3 8-1 3 1 6 2 7 4 2 6 0 13-8 14-5 0-11-4-10-10zM788 540c0 5-4 9-9 10-5 0-9-4-10-9 0-5 4-10 8-10 7 0 11 4 11 9zM137 493c-5 0-10-4-10-10 0-5 5-8 10-8 4 0 9 3 9 10 0 5-4 8-9 8zM300 478l2 1c2 1 4 0 6 2 2-1 3 0 5 1 3 0 3 1 3 3 1 4 0 7-3 10-4 4-14 2-15-5v-7-2c-1-1 1-2 2-3zM115 495c-4 1-9-5-9-9 1-6 4-9 9-9 7 0 10 4 10 10 0 5-4 8-10 8zM106 509c0 6-4 9-9 9s-10-4-10-9 5-9 9-9c6 0 10 4 10 9zM94 497c-5 0-10-4-9-9 0-5 4-9 9-9s10 5 9 10c0 5-4 9-9 8zM760 533c6 0 9 5 9 9 0 6-5 10-10 10-5-1-9-3-9-10 0-5 5-9 10-9zM224 487c4-1 9 4 9 9 0 6-4 9-9 9s-9-4-9-9c0-4 4-10 9-9zM1042 545c4 0 8 4 8 8 0 6-5 11-9 11-6-1-9-4-9-10 0-4 3-9 10-9zM679 522c5 0 8 2 9 8 0 4-3 10-9 10s-9-3-10-9c-1-5 3-9 10-9zM203 507c-6 0-10-4-10-10 1-6 6-8 10-8 5 0 10 5 9 9 0 6-4 10-9 9zM1062 543c4 0 8 4 8 9s-5 10-9 9c-7 0-10-3-9-9 0-6 5-9 10-9zM161 493c6 1 10 5 10 10-1 5-4 9-10 8-5 0-10-5-9-9 0-5 4-9 9-9zM740 554c-6-1-10-5-9-10 0-6 4-9 9-9 6 0 9 4 9 9 0 6-4 10-9 10zM110 530c-1 5-4 8-9 9-5 0-11-5-11-9 0-5 4-9 10-9 5-1 9 4 10 9zM1021 547c5 0 9 4 9 9s-4 9-9 10c-5 0-9-4-10-9 0-5 5-10 10-10zM143 534c-5 0-9-4-10-9 0-4 4-9 9-9 6 0 10 4 10 9s-4 9-9 9zM1010 558c0 5-4 9-10 9-5 0-9-4-9-9s5-9 10-9c6 0 9 3 9 9zM455 522c-5 0-9-4-9-9s2-9 9-9c5 0 9 3 9 10 0 4-4 8-9 8zM119 516c-5 0-10-4-10-9s4-9 9-9 10 4 10 9-4 9-9 9zM720 537c5 0 9 4 9 10 0 5-5 9-10 8-5 0-9-4-8-8 0-6 4-10 9-10zM112 527c1-6 4-9 10-9 5 0 10 5 9 9 0 6-4 9-10 9-4 0-10-5-9-9zM909 548c0 5-5 9-10 9s-9-4-9-9c1-5 4-9 9-9 6 0 10 4 10 9zM558 514c4-1 9 4 9 9-1 4-4 9-10 9s-9-5-9-9c0-6 4-9 10-9zM173 500c0-4 2-9 9-9 5 0 9 4 9 9 1 5-4 10-8 10-6-1-10-5-10-10zM932 564c0-4 3-9 9-9s9 4 9 9-4 9-9 9c-6 0-9-5-9-9zM235 494c0-6 5-9 9-9 5 0 10 4 10 9-1 5-4 9-9 9-5 1-10-4-10-9zM700 540c5-1 10 4 10 8 0 6-4 9-10 9-5 1-9-3-9-8s4-9 9-9zM568 520c0-4 3-7 8-8 3 0 5 0 8 3l2 6c0 5-4 9-9 9s-9-4-9-10zM131 504c0-5 3-8 8-8s10 4 10 8c0 5-4 10-9 10s-10-5-9-10zM165 532c-5 0-10-5-10-9 0-5 4-9 9-9s9 4 9 9c1 5-3 9-8 9zM265 482l4 2c1 2 5 2 5 5l1 5c-1 3-3 5-7 7-3 1-8-1-10-4s-3-6-1-10c2-3 5-4 8-5zM780 569c-6-1-9-4-9-9 0-6 5-9 9-9 7 0 10 4 10 8 0 5-4 10-10 10zM537 516c4-1 9 3 9 10 0 4-4 8-9 8s-9-4-9-9 4-9 9-9zM639 526c5 0 9 3 9 9 0 5-5 9-9 9-6-1-9-4-9-10 0-5 4-8 9-8zM879 559c-5 0-9-4-8-10 0-4 3-8 9-8 5 0 9 4 9 8 0 6-5 10-10 10zM518 536c-6 0-10-4-10-10 0-4 4-9 10-8 5 0 9 4 9 10-1 4-5 8-9 8zM443 515c1 5-4 9-9 9s-9-4-9-9c0-6 4-9 10-9 5 0 8 4 8 9zM310 517c-5 0-9-4-10-9 0-7 5-9 10-9 4 0 8 4 9 9 0 4-5 10-9 9zM230 545c-6 0-10-4-10-9s4-9 10-9c5 0 9 4 9 9 0 6-4 9-9 9zM197 518c0-5 4-9 8-9 7 1 10 4 10 10 0 5-4 9-10 8-4 0-8-4-8-9zM961 553c5 0 9 4 9 9 0 4-3 9-9 9-5 0-10-4-10-8 0-5 5-10 10-10zM659 542c-7 0-11-6-9-11 0-3 2-5 5-5l2-1c1-1 3-3 4 0h1c3-1 4 1 5 3 1 3 2 5 0 8-1 4-4 6-8 6zM680 542c6-1 9 4 10 9 0 4-4 8-10 9-5 0-9-5-9-9 0-5 4-10 9-9zM227 525c-5 1-9-5-9-9 0-5 4-9 8-9 6 0 10 5 10 10 0 4-4 8-9 8zM271 541c-6 0-9-4-9-9 0-7 4-9 9-9s9 5 9 10c0 4-4 8-9 8zM176 520c0-4 4-8 9-8 4 0 9 3 9 9 0 5-4 9-9 9-4 0-10-4-9-10zM414 508c5 0 9 4 9 9s-4 9-9 9-9-3-9-9c0-5 4-9 9-9zM289 519c-5 0-10-4-10-10 0-4 5-8 10-8s9 4 9 10c0 4-4 8-9 8zM355 553c-5 0-9-4-9-10 1-5 4-8 10-8 5 0 9 4 9 9-1 6-4 9-10 9zM403 520c-1 5-4 9-10 8-4 0-9-5-9-9 1-6 4-8 10-8 5-1 9 4 9 9zM426 538c-1 5-3 8-9 8s-9-3-9-9c-1-5 4-9 9-8 5 0 9 4 9 9zM330 515c-5 0-9-4-9-10 0-5 4-8 8-8 6-1 10 4 10 9s-4 9-9 9zM350 513c-6 0-9-5-9-10 0-4 4-9 8-8 6 0 10 3 10 9 1 5-3 9-9 9zM466 534c0 5-3 8-8 8-6 0-10-3-10-9s5-9 9-9c6 0 10 5 9 10zM300 530c0 5-3 9-8 9s-10-4-10-10c0-4 4-8 9-8 6 0 10 5 9 9zM367 541c0-4 4-8 9-8s9 3 9 9c0 5-4 8-8 9-6 0-10-4-10-10zM661 561c-6 0-10-3-9-8 0-5 4-9 9-9 4 0 9 3 9 9 0 5-5 9-9 8zM477 522c5 0 9 4 9 9 0 6-3 9-9 9-5 0-9-4-9-9s4-9 9-9zM628 537c0 4-3 9-9 9-5 0-9-4-9-10 0-4 4-8 9-8s9 4 9 9zM600 530c3 0 9 3 8 9 0 5-3 9-9 9-5-1-8-4-8-9-1-6 3-9 9-9zM588 541c0 5-4 9-9 9s-9-4-9-9c0-6 5-9 9-9 5 0 9 4 9 9zM364 521c0-4 4-9 9-8 5 0 9 3 9 9 0 5-3 8-8 9-5 0-10-5-10-10zM344 524c0-6 3-9 9-9 5 0 9 4 9 9s-4 9-9 9-9-4-9-9zM437 544c-5 0-9-4-9-9s4-8 9-8c5-1 9 4 9 9 0 4-4 8-9 8zM259 535c0 5-4 8-9 8s-10-4-9-9c0-6 4-9 9-9 6 0 9 6 9 10zM387 539c0-5 4-8 10-8 4 0 8 3 8 9 0 5-3 8-8 9-6 0-10-5-10-10zM313 537c-6 0-10-4-10-10 0-3 3-8 9-8 5 0 9 4 9 9 0 6-4 9-8 9zM268 503c5 0 10 4 9 9 0 5-3 9-8 9s-10-4-10-9c0-4 2-9 9-9zM332 535c-5 0-9-4-9-10 0-5 4-8 10-8 4 0 8 5 8 10 0 4-4 8-9 8zM473 503v3l4-3c3 0 5 3 6 5 2 2 1 7-1 9-4 4-11 4-14 0s-3-10 1-13c1-2 2-2 4-1zM256 515c0 5-4 8-9 8s-9-4-9-10c0-4 5-8 10-8 5 1 8 5 8 10zM509 549c0 5-4 9-10 9-5 0-8-5-8-10 0-4 3-8 9-8 4 0 8 4 9 9zM488 529c0-6 5-9 9-9 5 0 9 5 9 10 0 4-3 8-9 8-5 0-9-4-9-9zM560 551c-6 0-9-3-9-9-1-4 3-9 9-8 5 0 9 4 9 9s-4 8-9 8zM548 545c0 5-3 8-9 8-5 0-9-5-8-9 0-5 3-8 9-8 5 0 8 4 8 9zM520 556c-6 0-9-4-9-10 0-4 3-8 9-8 5 0 9 4 9 9 0 4-3 9-9 9zM367 497l2-2c3 0 6-3 10 1l1 3c1 5 0 8-4 10-3 2-7 2-10 0a9 9 0 01-3-12c1-2 1-2 4 0zM178 476l10-1c2 6 1 10-4 13-3 2-8 2-11-1-3-2-5-7-3-11 0-3 2-4 5-2l3 2zM692 523l2 2c1 1 3-2 4 1 2-3 5-3 8-3 3 4 2 9-1 13-3 2-9 3-12 0-4-3-5-8-2-13v2l1-2zM947 540c0 1 2 1 2 3 1 4-3 9-8 10-4 1-10-2-11-7l1-4c0-2 0-2 3-2h1l1-1c3 2 5-2 7-1l2 2h2zM381 495l5-2c1 3 4 4 5 3l5 1h3c1 0 2 1 1 2 0 8-7 12-13 9-3-2-5-4-6-8v-5zM589 514l3 1c2 2 5 2 7 1h7c1 5 0 9-3 11-4 2-8 2-12-1-3-3-4-7-2-12zM710 523l4 1c1 2 4 1 5 1l4-1c3 0 5 1 4 4 0 4-4 7-8 8-4 0-8-2-10-6-1-2-1-4 1-7zM216 332c-4 0-7-3-7-7 0-5 3-7 8-7 4 0 7 3 7 7 0 3-4 7-8 7zM236 336c-4 0-7-3-7-6 0-5 3-8 8-8 4 0 7 3 6 7 0 5-2 7-7 7zM204 321c0 4-3 7-7 7s-8-3-7-7c0-4 3-7 7-7 4-1 7 2 7 7zM248 310c0 3-2 7-8 7-3 0-6-3-6-7s3-7 7-7 7 4 7 7zM221 313c-4 0-7-3-7-7s4-7 8-7c3 0 6 3 6 7s-3 7-7 7zM122 466c0 3 1 5-2 5v1c-3 4-7 3-10 3-4-1-6-4-7-7l1-2c1-2 3-3 4-2l7 1h2c1 2 3 3 5 1zM261 308c3-1 7 2 7 6 0 5-3 8-7 8s-7-3-7-7 2-7 7-7zM280 326c-4 0-7-3-7-7s3-7 7-7c5 0 7 3 7 7s-3 7-7 7zM300 330c-4 0-7-3-7-7 0-3 4-7 7-7 4 0 8 4 7 8 0 3-3 6-7 6zM320 321c4 0 7 3 7 7 0 3-4 7-7 7-4 0-7-3-7-6 0-5 3-8 7-8zM609 515l2 2h8l7 1c0 4-2 6-6 8-4 1-8 0-11-4-2-3-2-4 0-7zM324 315c-4 0-7-3-7-6 0-4 3-7 6-7 5 0 8 3 8 7 0 3-3 6-7 6zM265 302c-3 0-7-2-7-6s4-7 7-7c4 0 7 3 7 6 0 4-3 7-7 7zM344 306c4 0 7 3 7 7 0 3-4 7-7 7-4 0-7-3-7-7s3-7 7-7zM389 321c0 5-2 8-7 8-3 0-6-3-6-7s3-7 7-7 7 3 6 6zM363 311c4 0 8 3 7 6 0 4-3 7-6 7-5 0-8-3-7-7 0-3 3-6 6-6zM305 311c-5 0-7-3-7-6 0-5 3-7 7-7s7 3 7 7c0 3-4 6-7 6zM292 299c0 4-3 7-7 7-4 1-7-2-7-6 0-3 3-7 7-7 3 0 7 3 7 6zM403 319c4 0 6 3 6 7s-3 7-7 7c-3 0-6-3-6-7s2-6 7-7zM339 338h-2c-2 0-4-1-4-4-1-2 0-6 3-8 3-1 7-1 9 2 2 2 2 7 0 8l-4 2h-2zM226 293c-4 1-7-3-7-6s3-7 7-7 7 3 7 6c0 5-3 7-7 7zM428 330c0 4-3 7-7 7-3 0-6-3-6-6 0-5 3-7 7-7s6 2 6 6zM202 308c-4 0-8-2-8-6l1-2c3-1 4-3 6-5h3c3 1 5 4 4 7 0 4-3 6-6 6zM252 291c0 4-3 7-7 7s-6-3-6-7c0-3 3-7 7-7 4 1 6 3 6 7zM439 315c0-3 3-6 7-6 3 0 7 2 7 6s-3 7-7 7-7-3-7-7zM375 299c0 2-4 6-7 6s-7-3-7-7c0-3 3-6 7-7 3 0 6 3 7 8zM465 326c-4 0-6-3-6-6 0-4 3-7 6-7 4 0 7 3 7 7 0 3-3 6-7 6zM478 324c0-4 3-7 6-7 4 0 7 3 7 7 0 3-3 7-6 7-4 0-7-3-7-7zM387 309c-4 0-7-3-7-7 1-3 4-7 7-6 4 0 7 3 7 7 0 3-3 6-7 6zM349 287c3 0 6 3 6 6 0 4-3 7-7 7s-6-2-6-6 3-7 7-7zM407 300c4 0 6 3 6 7 0 3-3 6-7 6-3 0-6-3-6-6 0-4 3-7 7-7zM503 334c-3 0-6-3-6-6 0-4 4-7 7-7 4 1 6 4 6 7 0 4-3 6-7 6zM310 279c3 0 6 2 6 6s-3 6-7 6c-3 0-6-2-6-6s3-6 7-6zM264 277c0-5 3-7 7-7 3 0 6 2 6 6s-3 6-7 6c-4 1-6-2-6-5zM322 289c0-3 3-6 7-7 3 0 6 3 6 7s-2 6-6 6c-4 1-7-3-7-6zM426 305c4 0 7 2 7 6s-3 6-7 6c-3 1-6-2-6-5 0-5 2-8 6-7zM469 307c-3 0-6-3-6-6 0-4 3-7 6-7 4 0 7 3 7 7 0 3-3 6-7 6zM250 278c-4 0-6-2-6-6 0-3 3-6 7-6s6 2 6 5c0 4-3 7-7 7zM283 281c0-4 4-7 7-7s6 3 6 6c0 4-3 7-7 7-3 0-6-3-6-6zM489 311c-4 0-7-2-7-6 0-3 2-6 7-6 3 0 6 2 6 6s-4 7-6 6zM456 296c0 4-2 7-6 7-3 0-7-3-7-7 1-3 4-6 7-6 4 0 6 3 6 6zM418 498l2 2c1 3-2 5-4 6-5 2-13 0-14-7 0-3 0-3 3-3l6 1c2 1 3 1 2 3h3l2-2zM527 307c3 0 6 3 6 6 0 4-3 7-6 7-4 0-7-3-7-7 0-3 2-6 7-6zM584 332c-3 0-6-3-6-6 0-4 3-6 6-6 3-1 6 2 7 5 0 4-3 7-7 7zM729 525l3-2 1 4 1-3 1 3v-2h12c1 3-1 4-2 6-2 2-4 3-7 3-6 0-10-4-9-9zM502 309c0-4 2-6 6-6 3-1 6 2 6 6 0 3-3 7-6 7-4-1-6-3-6-7zM340 270c0 3-3 6-7 7-3 0-6-3-6-6 0-4 3-7 7-7 3 0 6 3 6 6zM231 274c-4 0-6-2-6-6s3-7 7-7c3 0 6 3 6 6 0 4-4 7-7 7zM603 324c4 0 7 2 7 6s-3 6-7 6c-3 0-6-3-6-6 0-5 3-7 6-6zM559 321c0-3 3-6 7-6 3 1 5 3 5 7s-3 6-6 6c-4 0-7-3-6-7zM430 298c-4 0-6-3-6-6 0-4 3-6 7-6 3 0 6 3 6 6 0 4-3 6-7 6zM411 294c-4 0-6-3-6-6 0-4 3-7 7-6 3 0 6 2 6 6-1 3-3 6-7 6zM553 318c-1 3-4 6-7 6-4 0-6-3-6-7 0-3 3-6 6-6 4 1 6 3 7 7zM372 285c-4 0-6-2-6-6s3-6 6-6c4 0 7 3 7 6 0 4-3 7-7 6zM353 281c-4 0-7-3-7-6 1-4 4-6 7-7 4 0 6 3 6 7 0 3-3 6-6 6zM398 283c0 4-3 7-6 7-4 0-7-3-7-6 0-4 3-7 7-7 3 0 6 3 6 6zM275 264c-3 0-7-3-6-6 0-3 2-7 6-7s7 3 7 6c0 4-4 7-7 7zM255 259c-3 0-6-3-6-6s3-6 7-6c3 0 6 3 6 6 0 4-3 6-7 6zM537 294c0 4-3 6-7 6-3 0-5-3-5-6 0-4 3-6 7-6 3 0 5 2 5 6zM689 327c0 4-3 7-6 6-4 0-6-3-6-7 0-3 3-6 7-5 3 0 5 3 5 6zM237 243c3 0 6 2 6 5 0 4-4 7-7 7-4 0-6-3-6-6s3-6 7-6zM314 272c-4 0-6-2-6-5 0-4 3-7 6-7 4 0 7 3 7 6-1 4-3 6-7 6zM670 323c0 3-3 6-6 6-4 0-6-2-6-6s3-6 6-6c4 0 6 3 6 6zM645 325c-3 0-6-3-6-6s3-6 6-6c4 0 7 3 6 6 0 3-3 6-6 6zM607 317c-3 0-6-3-6-7 0-2 3-6 7-6 3 1 6 3 6 6-1 4-2 7-7 7zM512 284c4 0 6 2 6 6 0 3-3 6-7 6-3 0-5-3-5-6 0-4 3-6 6-6zM627 309c3 0 6 2 6 6 0 3-3 6-7 6-3 0-6-3-6-6 0-4 3-6 7-6zM390 264c0-4 3-6 6-6 4 0 6 3 6 6s-3 6-6 6c-4 0-6-3-6-6zM474 275c3 0 6 3 6 6s-3 6-7 7c-3 0-6-4-6-7s4-6 7-6zM702 337c-4 0-6-3-6-6s3-7 6-6c3 0 7 3 6 6 0 4-3 6-6 6zM383 259c0 4-3 7-6 7-4 0-6-3-6-6 0-4 2-6 6-6 3 0 6 2 6 5zM454 283c-3 0-6-2-6-6 0-3 3-6 6-6 4 0 7 2 7 6 0 3-3 6-7 6zM595 307c0 3-3 6-7 6-4-1-6-3-6-7 0-3 4-6 7-6 3 1 6 4 6 7zM293 268c-3 0-5-3-5-6 0-4 3-7 6-7s7 3 7 6c0 4-3 7-8 7zM338 257c-4 0-6-3-6-6s3-6 6-6c4 0 6 3 6 6 0 4-3 6-6 6zM563 303c0-4 3-7 6-7s7 3 7 6c0 4-3 7-7 7-3 0-6-3-6-6zM557 298c0 4-3 7-7 7-3 0-6-3-6-7s3-6 7-6c3 0 6 3 6 6zM280 244c-3 0-6-2-6-6 0-3 3-6 6-6 4 0 7 3 6 6 0 4-2 6-6 6zM441 272c0 4-3 7-7 7-3-1-6-3-5-7 0-3 3-6 6-6s6 4 6 6zM493 292c-3 0-6-3-6-7 0-3 2-6 6-5 3 0 6 3 6 6s-3 6-6 6zM416 263c4 0 6 2 6 5 0 4-3 7-7 6-3 0-6-2-5-6 0-3 2-6 6-5zM267 234c-1 3-3 6-7 6-3 0-6-3-6-6s4-7 7-6c3 0 6 3 6 6zM300 237c3 0 6 2 6 5-1 4-4 7-7 7s-6-3-6-6 3-7 7-6zM313 247c0-4 3-6 6-6 4 0 6 2 6 6 0 3-3 6-7 6-3 0-5-3-5-6zM668 310c-4 0-6-3-6-5 0-4 3-7 6-7s6 3 6 6c0 4-2 6-6 6zM352 256c0-4 2-7 6-7 3 0 6 3 6 6 0 4-3 6-6 6-4 0-6-2-6-5zM744 326c-4 0-6-2-6-5-1-4 2-7 5-7 4 0 7 3 7 6 0 4-3 6-6 6zM788 328c-1 4-3 6-6 6-4 0-7-3-6-6 0-4 2-6 6-6 3 0 6 3 6 6zM693 308c0 4-2 6-6 6-3 0-6-3-6-6s3-6 6-6 6 3 6 6zM763 330c-4 0-6-3-6-6s3-6 6-6 6 3 6 6c0 4-3 6-6 6zM725 322c-3 0-6-3-6-6s3-6 6-6 6 3 6 6-3 6-6 6zM588 292l-1-5c0-3 4-6 7-5s5 3 5 6c-1 4-4 6-7 5l-4-1zM465 258c0 4-3 6-6 6-4 0-6-2-6-6 0-3 3-6 6-6s6 3 6 6zM517 265c3 0 5 3 5 6s-2 6-6 6c-3 0-6-3-6-6 0-4 3-6 7-6zM478 268c-3 0-6-2-6-5 0-4 2-6 6-6 3 0 6 2 6 5s-3 6-6 6zM617 292c0 3-2 6-5 6-4 0-7-3-7-6 0-4 3-6 7-6 3 0 5 3 5 6zM439 248c4 0 6 2 6 5 0 4-3 7-6 7s-6-3-6-6 3-6 6-6zM549 279c0-3 2-6 6-5 3 0 6 2 6 6 0 3-3 6-7 5-3 0-5-3-5-6zM625 296c0-3 3-6 6-6s6 3 6 5c0 4-3 7-6 7s-6-3-6-6zM649 306c-3 0-5-2-6-6 0-3 3-6 6-6 4 0 6 3 6 6 1 3-2 6-6 6zM503 266c0 4-2 7-5 7-4 0-7-3-7-6s3-6 6-6 6 2 6 5zM579 283c0 4-3 7-6 7s-6-3-6-6 3-7 6-6c4 0 6 2 6 5zM712 312c0 4-3 6-6 6s-6-3-6-6 2-6 6-6c3 0 6 3 6 6zM401 251c-4 0-6-2-6-5 0-4 2-6 6-6 3-1 6 1 6 5s-3 6-6 6zM343 227c4-1 6 2 6 5s-3 6-6 6c-3 1-6-2-6-5 0-4 3-6 6-6zM240 211c0-3 3-6 6-6 4 0 6 2 6 5 0 4-3 7-6 7-4 0-6-3-6-6zM541 275c0 3-3 6-5 6-4 0-7-2-7-6 0-3 3-6 7-6 3 0 5 3 5 6zM235 230l2-3c0-3 5-5 8-2 2 2 3 5 1 8-1 2-5 3-8 2l-2-2-1-3zM362 243c-3-1-6-3-6-6 1-4 4-6 7-6s5 2 5 6c0 3-3 6-6 6zM304 230c-3 0-6-2-6-5 0-4 2-7 6-7 3 0 6 2 6 6 0 3-3 5-6 6zM420 244c4 0 6 2 6 5s-3 7-6 7-6-3-6-6c0-4 3-6 6-6zM291 220c0 3-3 5-6 5s-6-2-6-5 3-6 7-6c3 0 6 3 5 6zM387 241c0 3-2 6-5 6-4 0-7-3-6-6 0-3 2-6 6-6 4 1 5 2 5 6zM735 297c0 3-3 6-6 6s-6-3-6-6 3-6 6-6 6 3 6 6zM829 317c0 3-2 6-5 6-4 0-6-2-6-6 0-3 2-6 5-6 4 0 6 3 6 6zM324 234c-4 0-6-2-6-5 0-4 3-7 6-6 4 0 6 2 6 5s-3 6-6 6zM635 283c-3 0-6-3-6-6 0-4 3-6 6-6s6 3 5 6c0 3-2 6-5 6zM616 267c3 0 6 3 6 5 0 4-3 6-6 7-3 0-6-3-6-6s2-6 6-6zM875 329c0-3 2-6 5-6 4 0 6 3 6 6s-2 6-6 6c-2 0-6-3-5-6zM266 209c3 1 5 3 5 6s-3 6-6 6c-4 0-6-3-6-6 1-3 4-6 7-6zM837 321c0-3 2-6 5-6 4 0 6 4 6 6 0 3-3 6-6 6s-5-3-5-6zM786 315c-4 0-6-3-6-6s3-6 6-6 6 3 5 6c0 4-2 6-5 6zM710 299c-3 0-6-3-6-6s3-6 6-6 6 3 6 6-3 6-6 6zM867 325c0 4-2 6-5 6s-6-3-6-6 3-6 5-6c4 0 6 3 6 6zM597 263c3 0 6 3 6 6-1 3-2 5-7 5-2 1-5-3-5-6 0-2 3-5 6-5zM565 260c0 3-3 6-6 6s-6-3-6-6c0-2 3-5 5-6 4 0 7 3 7 6zM697 289c0 3-2 6-6 6-3 0-5-3-5-6s2-6 5-6 6 3 6 6zM508 248c0 3-4 6-6 6-3-1-6-3-6-6s3-6 6-6 6 3 6 6zM578 259c3 0 5 2 6 5 0 3-3 6-6 6s-6-3-6-6 3-5 6-5zM810 313c0 3-2 6-6 6-3 0-5-3-5-6s2-6 5-6 6 3 6 6zM767 311c-3 0-6-3-6-6s2-6 6-6c3 0 6 3 6 6 0 4-3 6-6 6zM482 249c-3 0-5-2-5-5 0-4 2-6 5-6 4 0 6 2 6 5s-3 6-6 6zM754 301c0 3-3 6-6 6s-6-3-6-6 3-6 6-6 6 3 6 6zM463 245c-3 0-6-2-6-5 0-4 3-6 6-6 4 0 6 2 6 5s-2 6-6 6zM527 252c-1 3-3 6-7 5-3 0-5-2-5-5s3-6 6-6 6 3 6 6zM545 256c0 4-3 6-6 6s-6-3-5-6c0-3 3-6 6-5 3 0 5 2 5 5zM659 281c0 3-2 6-5 6s-6-3-6-6 3-6 6-6 5 3 5 6zM486 507l6 1c0 3 3 2 3 4 2-1 5 0 7 3-3 3-8 4-12 2s-5-6-4-10zM450 235c0 3-3 6-7 6-2 0-5-3-5-6s3-6 6-5c4 0 6 2 6 5zM672 291c-3 0-6-3-6-7 0-2 3-5 6-5 3 1 6 3 6 7 0 2-3 5-6 5zM425 225c4 0 5 2 5 5 1 3-2 6-5 6s-6-2-6-5c0-4 3-6 6-6zM348 208c3 0 6 3 6 5 0 4-3 6-6 6s-6-2-6-5 3-6 6-6zM329 204c4 0 6 2 6 5-1 3-3 6-7 6-3 0-5-2-5-5 0-4 3-6 6-6zM315 205c0 3-3 6-6 6s-6-3-6-6 3-5 7-5c3 0 5 2 5 5zM714 269c3 0 5 2 5 6 1 3-2 5-5 5s-6-2-6-5 3-6 6-6zM765 286c0-3 3-5 6-5s5 2 5 5c0 4-2 6-5 6s-6-2-6-6zM620 249c3 0 6 2 6 5s-3 6-6 6-6-3-6-6 3-5 6-5zM411 226c0 4-2 6-5 6-4 0-6-2-6-6-1-3 2-5 6-5 3 0 5 2 5 5zM828 304c-4 0-6-2-6-6 0-3 2-5 5-5s6 2 6 5-2 6-5 6zM733 284c-3 0-6-3-6-6s3-5 6-5 6 3 6 6-3 5-6 5zM942 328c-3 0-6-3-6-6s2-5 5-5 6 2 6 5c0 4-2 6-5 6zM367 223c-3 0-5-2-5-5s3-5 6-6c3 0 5 3 5 5 0 3-3 6-6 6zM795 291c0 3-2 5-6 5-3 0-5-3-5-6s3-5 5-5c4 0 6 2 6 6zM512 229c0 3-3 6-6 6s-6-3-6-6c0-2 3-5 6-5s6 2 6 5zM909 315c0 3-3 5-5 5-3 0-6-3-6-6s3-5 6-5 5 2 5 6zM980 336c-3 0-6-3-6-6s3-5 6-5 5 2 5 6c1 2-2 5-5 5zM386 228c-3 0-5-3-5-6s2-5 6-5c3 0 5 2 5 5s-3 6-6 6zM846 297c3 0 6 2 6 5s-3 6-6 6-5-2-5-5c0-4 2-6 5-6zM961 321c3 0 6 3 5 6 0 3-3 5-6 5s-5-3-5-6 3-5 6-5zM582 252c-3-1-6-3-6-6s3-6 6-6c3 1 6 3 6 6s-3 6-6 6zM569 242c0 3-3 5-6 5s-6-3-6-6c0-2 3-5 6-5s6 3 6 6zM879 310c0-3 2-5 5-5s6 2 6 5-3 6-6 6-5-2-5-6zM922 313c3 0 6 2 6 5s-2 6-5 6-6-3-6-5c0-4 2-6 5-6zM525 228c3 0 6 3 6 5-1 3-3 6-6 6s-6-2-6-5c0-4 3-6 6-6zM270 202c-3 0-5-3-5-5 0-3 3-6 6-6s5 2 5 5-3 6-6 6zM814 294c0 3-3 6-6 6s-5-3-5-6c0-4 2-5 5-5s6 2 6 5zM658 268c-4 0-6-3-6-6s2-5 6-5c3 0 5 2 5 5 0 4-2 6-5 6zM544 232c3 0 5 2 5 6 0 3-3 5-5 5-3 0-6-2-6-5s3-6 6-6zM290 206c-3 0-5-2-6-5 0-3 4-6 7-6 3 1 5 3 5 6s-3 5-6 5zM252 187c3 0 5 2 5 5s-3 5-6 5c-3 1-5-2-5-5s2-5 6-5zM671 266c0-3 2-5 5-5 4 0 6 2 6 6 0 3-2 5-6 5-3 0-5-2-5-6zM757 282c0 4-2 6-5 6-4 0-6-2-6-6 0-3 2-5 6-5 3 0 5 3 5 5zM701 271c0 3-3 5-6 5s-5-2-5-5 2-6 6-6c2 0 5 3 5 6zM601 256c-3-1-6-3-6-6s3-5 6-5 6 2 6 5-3 6-6 6zM473 221c0 3-2 5-6 5-3 0-5-3-5-6s3-5 6-5c4 1 5 3 5 6zM871 306c0 4-2 6-6 6-3 0-5-2-5-6 0-3 2-5 5-5s6 3 6 5zM639 253c3 0 5 2 5 5s-2 6-5 6-6-3-6-6 3-5 6-5zM410 203c3 0 6 2 6 5s-3 5-6 5-5-2-5-4c0-4 2-6 5-6zM454 216c0 4-3 6-6 6s-5-2-5-5 3-6 6-6 5 2 5 5zM1003 321c-3 0-6-2-6-6 0-3 3-5 6-5 2 0 5 3 5 6s-2 5-5 5zM1022 325c-3 0-6-3-6-6 0-2 3-5 6-5s5 3 5 6-2 5-5 5zM1060 333c-3 0-5-3-5-6 0-2 3-5 5-5 3 1 6 3 6 6s-3 5-6 5zM435 212c0 3-2 6-6 6-3 0-5-2-5-5s2-6 6-6c3 0 5 2 5 5zM907 291c3-1 6 2 6 5s-3 5-5 5c-3 0-6-2-6-5s2-5 5-5zM492 225c0 3-2 5-5 5s-6-2-6-5 3-5 6-5 5 2 5 5zM984 306c3 1 5 2 5 6 0 3-2 5-6 5-3 0-5-3-5-5 0-4 2-6 6-6zM965 313c-3 0-6-2-6-5s2-6 6-6c2 0 5 3 5 6s-2 5-5 5zM296 178c3 0 5 2 5 4 1 2-1 4-3 5l-2 1c-3 0-5-1-6-4 0-3 1-5 4-6h2zM945 309c-3 0-5-2-5-6 0-3 2-5 5-5 4 0 6 2 5 6 0 3-2 5-5 5zM662 249c-3 0-6-2-6-5s3-6 6-6c2 1 5 3 5 6s-3 5-5 5zM699 247c3 0 6 2 6 5s-3 5-5 5c-3 0-6-2-6-5s2-5 5-5zM926 294c3 0 6 3 6 6s-3 5-6 5-5-2-5-5 2-6 5-6zM888 297c-3 0-5-2-5-5s2-6 5-6 5 3 5 6-2 5-5 5zM869 283c3 0 5 2 6 5 0 3-3 5-6 5s-5-2-5-5c0-2 2-5 5-5zM742 260c0 3-2 5-5 5s-6-2-5-6c0-2 2-5 5-5 3 1 5 3 5 6zM1041 329c-3 0-5-2-5-5 0-4 2-6 5-6s5 3 5 6-2 5-5 5zM334 196c-3 0-6-1-6-4s3-6 6-6 5 3 5 5c0 3-2 5-5 5zM392 209c-3 0-6-2-6-4 0-4 2-6 5-6s6 2 6 5-3 5-5 5zM812 271c3 0 6 2 5 5 0 3-2 5-5 5s-5-2-5-6c0-3 2-5 5-4zM511 206c3 0 5 2 5 5 0 2-2 5-5 5s-6-2-6-5 2-5 6-5zM549 214c2 1 5 3 4 5 0 4-2 6-6 6-2-1-5-3-4-5 0-4 3-6 6-6zM629 236c0 3-2 5-5 5s-6-2-6-5c1-3 3-6 6-6s5 3 5 6zM826 280c0-3 2-6 5-6 3 1 6 3 6 6s-3 5-5 5c-4 0-6-2-6-5zM780 268c0 3-2 5-5 5s-6-2-6-5c1-3 3-5 6-5s5 2 5 5zM373 195c3 0 5 1 5 4s-3 6-6 6-5-3-5-5c0-3 3-5 6-5zM535 215c0 3-3 5-5 5-3 0-6-2-6-5s2-5 5-5 6 2 6 5zM600 232c0-3 2-5 5-5s6 2 6 5-3 5-6 5-5-2-5-5zM353 190c3 0 5 2 5 5s-2 5-5 6c-3 0-5-2-6-6 0-2 3-5 6-5zM855 284c0 2-2 5-4 5-3 0-6-2-6-5-1-3 2-5 5-5s5 2 5 5zM492 202c2 0 5 2 5 5 0 2-3 5-6 5s-5-3-5-5c0-3 3-5 6-5zM1141 320c4 0 6 1 5 5 1 3-2 5-4 5-3 0-6-3-6-6 0-2 2-5 5-4zM680 243c3 0 6 2 6 5s-2 5-5 5-6-2-6-5 2-5 5-5zM315 182c3 0 5 2 5 5s-3 5-5 5c-3 0-6-2-6-4 0-3 3-6 6-6zM756 259c3 0 5 2 5 5s-2 5-5 5-6-2-5-5c0-3 2-5 5-5zM591 227c0 4-2 6-5 6s-5-3-5-5c0-3 2-5 6-5 2 0 4 2 4 4zM723 256c0 3-2 5-5 5s-5-2-5-5 2-5 5-5 5 2 5 5zM799 272c0 3-2 5-5 5s-6-2-6-5 3-6 5-6c3 1 6 3 6 6zM1103 322c-3 0-6-2-6-5s2-5 5-6c3 0 6 3 6 6 0 2-2 5-5 5zM1083 318c-3 0-6-3-6-6 0-2 3-5 6-5 2 0 5 3 5 6s-2 5-5 5zM643 245c-3 0-5-2-5-5s2-5 5-5 5 2 5 5-2 5-5 5zM473 198c3 0 5 1 5 5-1 3-3 5-5 5-3 0-6-3-6-5 0-3 3-6 6-5zM567 218c3 0 5 2 6 5 0 3-2 6-5 6s-6-2-6-5 2-5 5-6zM276 184c-3 0-5-3-5-5 0-3 2-5 6-5 2 0 5 2 5 4 0 3-3 6-6 6zM1049 305c1 2-2 5-4 5-3 0-6-3-6-6 0-2 2-4 5-5 3 0 5 3 5 6zM633 217c0 3-2 5-5 5s-5-2-5-5 2-5 5-5 5 3 5 5zM1122 326c-4-1-5-2-5-6-1-3 2-4 5-5 2 0 5 3 5 6 0 2-2 5-5 5zM1030 301c0 3-2 5-5 5s-5-3-5-6c0-2 2-4 5-4s5 2 5 5zM873 274c-3 0-5-3-5-5 0-3 2-5 6-5 2-1 4 2 4 5s-2 5-5 5zM319 482l7 2c1 1-2 3 1 3v3l-1 4c-2 1-5-1-7-3-1-3-2-7 0-9zM1064 314c-4 0-5-3-5-6 0-2 2-4 5-4s5 2 5 5-2 5-5 5zM1161 323c2 0 5 3 5 6 0 2-2 4-5 4-3 1-5-2-5-4-1-3 2-6 5-6zM954 285c0 3-2 5-5 5s-6-2-5-5c0-3 2-5 5-5s5 2 5 5zM973 289c0 3-2 5-4 5-4 0-6-2-6-5s2-5 5-5 5 2 5 5zM897 273c0 3-2 5-5 5s-5-3-5-5c0-3 2-5 5-5s5 2 5 5zM741 246c-3 0-5-2-5-5s2-5 5-5 5 3 5 5c0 3-2 5-5 5zM911 272c3 0 5 2 5 5s-2 5-5 5c-2 0-5-3-5-5 0-3 2-5 5-5zM252 175c0-3 3-5 6-5s5 2 4 4c0 3-2 6-6 5-2 0-4-2-4-4zM1006 292c3 0 5 2 5 5s-2 5-5 5-5-3-5-5c0-3 2-5 5-5zM840 261c0 3-2 5-5 5s-5-2-5-5 3-5 6-5c2 0 4 2 4 5zM779 254c-3 0-6-2-6-5 1-3 3-5 6-5s5 2 5 5-2 5-5 5zM458 198c0 3-2 5-5 5-3 1-5-1-5-4s2-5 5-5c3-1 5 1 5 4zM811 256c0-2 3-4 5-4 3 0 5 3 5 5 0 3-3 5-5 5-4-1-5-2-5-6zM415 186c4 0 6 1 5 4 0 3-2 5-5 5s-6-2-5-4c0-3 2-5 5-5zM930 286c-3 0-5-3-5-5 0-3 2-5 5-5s5 2 5 5-2 5-5 5zM987 298c-3-1-5-3-5-6 0-2 2-4 5-4s5 2 5 5-2 5-5 5zM652 222c0 2-2 4-5 4s-5-2-5-5c0-2 3-5 6-5 2 1 4 3 4 6zM671 225c0 3-2 5-5 5-4 0-5-2-5-5-1-2 2-5 5-5s5 2 5 5zM854 270c-3 0-5-2-5-5s2-5 5-5 5 2 5 5-2 5-5 5zM590 204c3 0 5 2 5 5s-2 5-5 5-5-2-5-5c1-3 3-5 5-5zM797 258c-3 0-5-2-5-5s3-5 6-5c2 0 5 2 5 5s-3 5-6 5zM359 173c3 0 4 2 5 4 0 3-3 5-6 5s-5-1-5-4 2-5 6-5zM765 245c0 3-2 5-5 5s-5-2-5-5 2-5 4-5c3 0 6 2 6 5zM727 237c0 3-2 5-5 5s-5-2-5-4c0-4 2-6 5-6s5 2 5 5zM429 195c0-3 2-5 5-5 3-1 5 1 5 4s-2 5-4 5c-3 1-6-2-6-4zM615 213c0 3-3 5-6 5s-5-2-5-5c0-2 3-5 5-5 3 0 6 2 6 5zM340 169c2 0 5 2 5 4 0 3-3 5-6 5s-5-2-5-4c0-3 3-5 6-5zM397 181c3 0 4 2 4 5s-2 5-5 5-5-2-5-5 2-5 6-5zM708 233c0 3-2 5-5 5-2 0-5-3-5-5s3-5 5-5c3 0 5 3 5 5zM572 200c3 0 5 2 5 5s-2 5-5 5-5-2-5-5 2-5 5-5zM685 234c-4 0-5-2-6-5 0-2 3-4 5-5 3 0 5 3 5 5 1 3-2 5-4 5zM300 170l-2-1c-2-1-3-3-2-5 2-3 6-4 9-2 1 1 2 3 1 5 0 1-3 3-6 3zM320 165c3 0 5 1 5 4s-2 5-5 5-5-2-6-4c0-3 3-5 6-5zM377 187c-3 0-5-2-5-4 0-3 3-6 6-6 3 1 5 2 5 5-1 3-3 5-6 5zM1227 318v5c-1 2-3 4-6 3-3 0-5-2-4-5 0-2 1-3 3-3h7zM1244 320l2 2v5c-1 2-3 4-6 3-2 0-4-3-4-5s1-3 3-3h1c2 1 3 0 4-2zM281 166c-1 0-4-1-4-3-1-1 0-3 2-5 1-1 3-2 5-1s3 3 3 5c-1 2-3 4-6 4zM350 156c0 3-3 4-6 4-2 0-5-2-4-4 0-2 2-5 4-5 4 0 6 2 6 5zM1111 297c0 4-2 6-5 6-2 0-5-2-6-4 0-3 2-5 4-4h5l2 2zM129 465c2 1 3 3 6 2l1 1 2 3c-3 3-6 2-9 1s-4-3-4-6l4-1zM326 148c3 0 4 1 4 3 0 3-2 5-5 5s-5-2-4-4c0-3 2-5 5-4zM259 159c0-3 1-5 4-5 2 0 4-1 5 1 1 1 1 4-1 5-1 2-3 3-5 2-3 0-3-1-3-3zM557 199c2 2 0 4-1 6h-5c-2 0-3-2-3-4 0-3 1-4 3-3l6 1zM363 157h4c2 1 2 2 2 4-1 3-6 4-9 2-1 0-2-3-1-4 0-2 2-2 4-2zM539 196c0 4-2 6-5 6s-6-3-5-6c0-2 1-3 3-3l7 3zM76 477l-3-6c1-2 1-6 4-7 5 4 4 11-1 13zM1187 312c1 4 0 6-2 7-3 0-6-1-7-4v-3l3-1 6 1zM1159 309l5-1 1-3c3 2 4 4 3 7-1 2-3 3-6 3-2-1-3-3-3-6zM383 162v-2l5 6-3 3c-3 1-6 0-7-2v-4c1-2 2-2 5-1zM293 144c0 2-2 3-4 4-1 1-3 0-5-1l-1-3c1-2 5-4 8-4l2 4zM234 173l5-6 2-1 3 3c1 2 0 4-2 5-3 2-6 2-8-1zM902 532c2 3 2 5-2 5-4 1-7 0-10-3 1-2 3-2 4-2h8zM1294 412l4-21 4-25 2-6-2 9-3 22-2 8-1 10c0 1 0 2-2 3 0-1 0 0 0 0zM1208 318c0 2-1 3-3 4h-5l-2-3c-1-2 0-4 3-4l5 1 2 2zM312 147c0 3-2 4-5 5-1 1-4-1-5-2-1-2 0-4 2-5h5c2 0 3 1 3 2zM1032 541c3-1 5-1 5-3h10v2c-1 2-3 3-5 3-4 1-7 0-10-2zM271 137c3 0 4 1 4 4-1 3-6 5-9 3v-4c1-1 3-4 5-3zM1121 299c1 1 3 0 4 2h4c1 2 0 4-1 5h-7c-2-2-2-4 0-7zM424 500l6 1c2-2 6-2 10-1-1 3-4 5-7 5-4 0-8-2-9-5zM510 192l9-2c2 2 1 4 0 5-1 2-5 3-7 2-1-1-3-3-2-5zM1149 306c0 2 0 4-2 4-2 1-5 1-6-1-2-2-2-3-1-4 0-1 3-2 4-1l5 2zM764 530c-5 2-9 3-14-1v-1l1-1h8c1 2 3 2 5 3zM336 485c2 4-2 9-7 10v-3c0-3 1-5 4-6l3-1zM1091 296c-1 2-2 3-5 3-2 0-4-1-5-3 2-4 5-2 6-3l4 3zM1068 290l3-1c1 3 0 5-2 6s-5 0-7-3l4-3c0-2 2-1 3-1l-1 2zM1262 325l-3 9c-3-1-4-4-3-7 0-2 3-3 6-2zM1014 281c-2 3-4 3-6 2-2 0-3-2-3-4-1-1 0-2 2-2l7 4zM1204 336h-9c0-3 2-5 4-5 3 0 5 2 5 5zM78 498l1-13c3 1 3 4 3 7s-2 5-4 6zM340 489h5c2 2 4 1 7 2-4 4-10 2-12-2zM530 513c0-2 2-1 3-1l4-1h8c-3 1-5 3-8 3-2 1-5 0-7-1zM1054 540c2-2 5-2 7-1l3-2 2 1c-2 4-5 4-12 2zM1257 430c0 6-2 12-4 18-1-4 1-14 4-18zM491 188l8 1 1 1c0 2-4 3-6 3-2-1-2-2-3-5zM1052 288c-3 4-6 4-9 0l2-3 3 1-3 1c2 2 5-1 7 1zM986 276h7l2-1 1 2-1 1-3 1c-2 1-4 0-6-3zM1032 285c-4 3-7 2-8-2 3-1 6 0 8 2zM82 506c4 3 4 7 1 10l-1-5v-5zM447 501c4-2 7 0 11 0-4 3-8 2-11 0zM1305 349l2-11 1-5c2 1 1 3 1 4l-2 7c0 2 0 4-2 5zM453 181c3 0 6-1 7 2-3 2-5 2-7-2zM479 186c-1 2-1 3-3 3-2-1-3-2-3-4l6 1zM1258 419l4-16v1a476 476 0 01-4 15zM1290 432l3-13 1-8v6l-3 13-1 2zM896 258c-2 1-3 1-4-1v-4c2 2 4 3 4 5zM630 521l4 1h4v2c-1 1-6 0-8-3zM975 274c-4 2-6 2-8-2 3 1 5 0 8 2zM245 158l5-5c0 4-1 5-5 5zM936 266c-4 2-5 2-7-2l7 2zM524 514l2-2 2 1-1 2h-3v-1zM209 287l3-4c1 3 0 4-3 4zM855 249c2 0 3-1 4 2-2 1-3 1-4-2zM232 208l-2-6c3 1 3 2 2 6zM1290 432c1 3 2 6-1 9l1-9zM554 512c2-1 3-2 5 0l-5 1v-1zM1305 349c1 3 0 6-1 8l1-8zM237 190c-2-2-1-3 0-5v5zM1269 368c1 2 1 4-1 5l1-5zM1258 419c2 2 0 3-1 5l1-5zM779 234l5 1c-2 1-3 1-5-1zM441 180h-5 5z"/>
  <path d="M947 540h-2v-3c2 1 2 2 2 3zM918 263h-4l3-1 1 1zM949 271h4-4zM839 247h-2 2zM821 243l-3-1c1-1 2 0 3 1zM399 172h-3c1-2 2-1 3 0zM640 523l2-1c0 2-1 2-2 1z"/>
  <path d="M840 544c4-1 6-3 7-6 1-2 1-3-1-4 2-7 6-8 14-9l-6 8h-2l-3 1 1 4 8 4-5 3-4 6c-1-4-4-7-9-7zM1134 582c-5-6-4-5-10-6l6-4 4-6c1 5 4 7 9 8-4 1-7 3-9 8zM1141 348c-4 1-8 2-10 6-1-2-1-4-3-5l-4-3c4-2 8-4 9-9 1 5 4 8 8 11zM1132 548c3 3 5 6 10 6l-5 4c-2 1-2 3-3 5l-4-4-6-3c4-2 7-4 8-8zM1177 343c1 4 2 7 6 9l-10 7c-1-3-2-6-6-8l6-3 4-5zM1161 350c-3 1-6 2-9 6-1-3-3-6-7-7l6-3 4-4 6 8zM1194 562l3 4 5 2c-4 2-6 5-7 9-3-4-4-8-9-8l4-3 4-4zM1031 356l-9 6c-1-2-2-5-5-7l8-6c1 2 2 6 6 7zM782 349c-4 2-6 4-8 7l-6-8 8-7c1 3 2 7 6 8zM1198 346l2 5 3 3-8 6-3-4-4-3c4-1 8-2 9-7h1zM1021 369l5 8-8 6c0-3-3-5-6-8 4-1 7-3 9-6zM1130 389l-8 5-5-7 8-5 5 7zM1055 380l7-6 5 8-7 5-5-7zM977 378l-5-7 7-6 6 8-4 2c-2 0-3 2-4 3zM1172 366l4 7-8 5-4-7 8-5zM815 360l-6-8 7-5 6 7-4 2-3 4zM923 365l-7 6-6-7c3-2 6-3 8-7 0 4 3 6 5 8zM1167 386l5 8-8 5-5-7 8-6zM981 357l-5-7 7-6 2 4 3 4-7 5zM1067 353c0 3 2 6 5 7l-8 7-5-7 8-7zM1134 368l-8 6-2-4-3-3 9-7c0 3 2 6 4 8zM795 344l6 7-7 6-6-7c3-1 6-3 7-6zM748 346l7-6 6 7-4 2-3 4-3-4-3-3zM926 345l-7 6-2-4-3-4 6-4h2l1 1 3 5zM875 366l-5-7 7-6c1 2 2 6 6 7l-8 6zM1101 364l7-5 5 7-7 5-5-7zM1088 357l4 6-7 6-5-7 8-5zM964 370l-8 5-5-7 7-5 6 7zM1043 364l-5-7 8-5 4 7-7 5zM1088 384l-7 5-6-7 8-5 5 7zM1000 368l5 7-8 4-5-6 8-5zM1143 369l7-5 5 7-8 5-4-7zM895 368l-5-6 7-6c1 2 3 5 6 6l-8 6zM935 346l7-6 4 7-6 6-5-7zM1151 391l-8 5-5-6 8-6 5 7zM836 349l5 7-6 5-6-6 7-6zM1192 396l-7 5-5-7 8-5 4 7zM943 368l-7 5-5-7 7-5 5 7zM1041 373l6 6-8 5-5-6 7-5zM1001 359l-4-6 7-6 2 4 3 2-8 6zM849 357l7-5 5 6-6 5-6-6zM1197 375l-7 5-5-7c3 0 5-2 7-5l5 7zM1104 379l4 7-7 5-5-6 8-6zM589 354l-6-6c2-2 6-3 7-7l5 8-6 5zM187 348l-5-7 5-3c1-1 2 0 3 1l4 4-7 5zM636 354l-7 5-5-7 4-2 3-4 5 8zM960 355l-5-7c3-2 6-3 8-7 0 4 1 6 4 8l-7 6zM375 344l5-5h3l3 6-6 6-5-7zM1058 395l5 7-7 5-5-6 7-6zM574 347l-6 5-5-7 7-5 4 7zM899 348l-5-7c4-4 7-4 12 2l-4 2-3 3zM676 358l-6 6-5-7 7-5 4 6zM295 349l5 7-6 5-5-6 6-6zM225 347l6-5 6 6-6 5-6-6zM726 364l6-6 5 7-6 5-5-6zM867 380l7-6 4 7-6 5-5-6zM1125 409l-7 5-4-7 3-2 3-3 5 7zM449 353l-6 5-5-7 6-5 5 7zM479 357l6-6 5 7-6 5-5-6zM604 350l6-5 5 7-6 5-5-7zM918 386l-6 5-4-7 6-5 4 7zM524 377l5 6-6 5-5-6 6-5zM520 361l6-5 5 6-6 6-5-7zM1014 402l-4-6 7-5 4 6-7 5zM778 370l-7 5-5-7 7-5 5 7zM379 371l-6-6 6-6 6 7-6 5zM337 367l-6-7 7-5 5 6-3 3-3 3zM1167 414l-7 4-5-5 7-6 5 7zM441 378l-5-6 6-5 6 6-7 5zM210 339l5 7-6 4-5-6 6-5zM812 379l-5-6 6-5 5 6-6 5zM482 383l-5-6 6-5 6 6-7 5zM396 347l7-6 4 7-6 4-5-5zM586 375l-4-7 6-5 4 7-6 5zM973 397l-4-6 6-5 5 6-7 5zM669 372l5 7-6 4-5-6 6-5zM645 355l6-5 5 6-6 5-5-6zM366 343l-6 5-6-7 4-2c2-2 3-1 5 1l1 1 2 2zM1136 546h-18v-1l7-4c3 0 7-1 9 2l2 3zM316 363l-6-6 6-4 6 6-6 4zM274 347l5 7-3 2-3 2-5-6 6-5zM584 395l-5-6 7-5 4 6-6 5zM1176 415l7-5 4 6-6 5-5-6zM1072 403l7-5 4 6-6 5-5-6zM686 359l6-5 5 7-6 4c-2-1-4-3-5-6zM1000 395l-6 4-5-5 7-5 4 6zM627 379l-5-6 7-5 4 6-6 5zM247 349l6-4 5 6-6 4-5-6zM706 362l6-5 5 6-6 5-5-6zM428 350l-6 5-5-6 6-5 5 6zM730 379l4 6-5 5-5-6 3-2 3-3zM625 399l-5-6 6-5 5 7-3 2-3 2zM746 366l6-5 5 6-6 5-5-6zM1162 434l-6 5-2-3-3-3 7-5 4 6zM147 359l-6 5-5-7 6-4 5 6zM78 345l4 6-6 5-4-6 6-5zM358 368l-6-6 6-5 6 6-6 5zM1104 407l-7 4-4-6 6-4 5 6zM505 365l-5-6 6-5 5 6-6 5zM666 404l-5-6 6-5 5 6-6 5zM1054 442l-6 4-5-6 4-2 3-2 4 6zM915 405l-6 5-4-6 6-5 4 6zM972 432l-6 5-4-6 6-5 4 6zM953 395l-4-6 6-5 4 6-6 5zM894 377l4 6-6 5-5-6 7-5zM552 365l-6 4-5-6 6-4 5 6zM462 380l-5-5 6-5 5 6-6 4zM1158 454l-7 4-4-5 7-5 4 6zM1031 398l6-4 5 5-7 5-4-6zM970 417l-5-6 7-5 4 6-6 5zM787 371l6-5 5 6-6 5-5-6zM509 381l-6 4-5-6 6-4 5 6zM1116 449l-7 4-4-5 6-5 5 6zM1048 420l6-5 4 7-6 4-4-6zM465 349l4 6-5 5-5-6 6-5zM567 361l5 6-6 5-5-6 6-5zM607 376l-5-6 6-4 5 6-6 4zM1116 423l4 6-7 5-3-6 6-5zM420 375l-5-5 6-5 5 6-6 4zM185 368l-5-5 6-5 5 6-6 4zM406 369l-6 4-5-6 6-5 5 7zM74 377l-5-6 6-5 5 6-6 5zM766 415l-4-6 6-5 4 6-6 5zM1013 411l4 6-6 4-5-5 7-5zM643 375l6-5 4 6-5 5-5-6zM1007 441l-5-6 6-4 5 6-6 4zM775 390l-6 5-5-6 6-5 5 6zM145 380l-6 4-5-6 6-4 5 6zM872 421l-6 4-5-5 6-5 5 6zM651 397l-6 4-4-5 6-5 4 6zM827 375l6-5 5 6-6 5-5-6zM539 384l6-5 5 6-6 5-5-6zM906 430l-5-6 6-5 5 6-6 5zM853 373l4 5-6 5-4-6 6-4zM1139 416l-4-6 6-5 4 6-6 5zM815 394l-6 5-4-6 6-5 4 6zM570 388l-6 4-5-6 6-4 5 6zM692 401l-6 4-5-5 6-5 5 6zM864 400l6-5 5 6-6 4-5-5zM704 382l5-5 5 6-6 4-4-5zM928 387l6-5 4 6-5 4-5-5zM611 392l-6 5-5-6 6-5 5 6zM293 381l-5-6 6-4 5 6-6 4zM521 408l-4-6 5-4 5 5-6 5zM1137 451l-7 5-4-6 6-4 5 5zM1141 431l-6 5-5-6 7-4 4 5zM1075 419l4 5-7 4-4-5 7-4zM1168 455l6-4 4 5-6 4-4-5zM750 382l4 6-5 4-5-6 6-4zM1179 430l3 6-6 4-4-5 7-5zM727 400l5 6-6 4-4-6 5-4zM98 358l-5-6 6-4 2 3 2 2-5 5zM1034 439l-7 4-4-5 6-4 5 5zM119 361l-4-6 5-4 5 5-6 5zM1095 446l-6 5-5-6 7-4 4 5zM230 363l5 6-6 4-5-5 6-5zM802 413l6-4 4 5-6 5-4-6zM297 397l-5 5-5-6 5-5 5 6zM684 380l6-5 4 6-6 4-4-5zM189 385l-6 4-4-5 5-5 5 6zM341 382l-6 4-5-5 6-5 5 6zM990 419l-4-6 6-4 4 5-6 5zM1095 421l4 6-6 4-4-6 6-4zM890 397l5 6-6 5-5-6 6-5zM951 404l4 6-6 4-4-5 6-5zM48 369l5-5 5 6-6 4-4-5zM785 391l5-5 5 6-6 4-4-5zM988 429l4 5-6 5-4-6 6-4zM845 398l5-5 5 6-6 4-4-5zM377 391l-4-6 5-4 4 5-5 5zM825 395l5-4 4 5-5 5-4-6zM476 397l5-4 5 6-6 4-4-6zM706 408l-5-6 6-4 5 5-6 5zM1064 443l6-4 2 2 3 3-7 4-4-5zM926 432l-4-5 6-5 4 6-6 4zM746 412l-4-6 6-4 4 6-6 4zM952 430l-6 4-5-5 6-5 5 6zM788 407l4 5-6 4-4-5 6-4zM164 355l5 7-6 3-5-5 6-5zM1033 414l4 5-6 4-4-5 6-4zM334 407l-5-6 5-4 5 5-5 5zM935 408l-6 4-4-5 6-5 4 6zM227 394l-4-5 5-5 5 6-6 4zM435 393l5-5 5 6-6 4-4-5zM852 419l-6 4-5-5 6-5 5 6zM96 369l5 5-5 5-5-5 5-5zM371 406l5-5 5 6-3 2-2 2-5-5zM882 422l5-5 5 6-6 4-4-5zM112 376l6-4h1c4 5 4 5-2 9l-2-2-3-3zM433 413l5-5 5 6-6 4-4-5zM162 377l5 5-6 4-4-5 5-4zM251 376l-5-5 5-5 5 6-5 4zM361 384l-5 4-4-5 5-4 4 5zM822 416l6-5 4 6-6 4-4-5zM583 415l-5-6 6-4 4 5-5 5zM211 387l-5 4-5-5 5-4 5 5zM479 413l5 6-6 4-4-5 5-5zM1153 474l-6 4-4-5 6-5 4 6zM207 370l-5-5 5-4 5 5-5 4zM267 373l5-4 5 5-5 4-5-5zM394 388l5-4 4 5-5 4-4-5zM318 400l-5 4-4-6 4-3 5 5zM1111 469l-6 4-3-6 5-3 4 5zM1044 465l-4-5 6-4 4 6-6 3zM1101 492l-3-5 5-4 4 5-6 4zM424 391l-5 4-5-5 5-4 5 5zM515 423l5-5 5 6-5 4-5-5zM1149 494l-6 4-4-6 6-4 4 6zM466 396l-6 4-4-5 5-4 5 5zM309 378l6-4 4 5-2 2-3 2-5-5zM350 403l5-4 5 6-5 4-5-6zM250 387l4 5-5 4-4-5 5-4zM623 419l-4-5 5-5 4 5-5 5zM999 455l6-4 4 5-6 5-4-6zM412 411l6-5 4 6-5 4-5-5zM576 429l5-4 4 5-4 4-5-5zM968 452l-5 4-4-5 5-5 4 6zM1168 480l-4-5 5-4 5 5-6 4zM665 414l4 5-5 4-5-5 6-4zM1164 500l-4-5 6-4 4 5-6 4zM276 395l-6 4-4-5 5-4 5 5zM506 401l-5 4-4-5 5-4 4 5zM567 408l-5 4-4-5 5-4 4 5zM543 401l4 5-5 4-5-6 6-3zM392 408l5-4 4 5-5 4-4-5zM900 469l-4-5 5-4 4 5-5 4zM1000 480l-4-5 5-4 4 5-5 4zM717 444l5-4 4 5-5 4-4-5zM908 445l-5 4-4-5 5-4 4 5zM77 393l-5 4-4-5 4-4 5 5zM757 449l5-4 4 5-5 4-4-5zM541 421l4 5-5 4-4-5 5-4zM856 460l5-5 4 5-5 4-4-4zM504 421l-5 4-4-5 5-4 4 5zM863 445l-4-5 5-5 4 6-5 4zM626 435l-5 4-4-5 5-4 4 5zM800 433l5-4 4 5-5 4-4-5zM769 430l-5 4-4-5 5-5 4 6zM458 420l-4-4c1-2 4-2 5-5l4 5-5 4zM720 425l5-5 4 5-5 5-4-5zM801 458l-4-5 5-4 4 5-5 4zM176 425l4-4 5 5-6 4-3-5zM223 435l-4-5 5-4 4 5-5 4zM1040 485l-4-5 6-4 4 5-6 4zM141 422l-6 3-4-5 5-3 5 5zM648 417l-5 4-4-5 5-4 4 5zM560 432l-4-5 5-4 4 5-5 4zM956 471l5-5 4 6-5 4-4-5zM943 454l-4-5 5-4 4 5-5 4zM921 462l4 5-5 4-4-5 5-4zM139 396l4 5-6 3-3-4 5-4zM1123 470l5-4 4 5-6 4-3-5zM1066 459l4 5-6 3-4-4 6-4zM226 405l4 5-4 4-4-4 4-5zM924 442l4 5-6 4-1-2-2-3 5-4zM182 409l-4-5 4-3 4 4-4 4zM666 439l-5 4-4-5 5-4 4 5zM680 420l5-4 4 5-5 4-4-5zM1077 485l6-4 3 5-4 2h-2l-3-3zM709 423l-5 4-4-5 5-4 4 5zM1062 479l4 4-5 4-4-4 5-4zM789 432l-5 4-4-5 5-4 4 5zM979 453l6-4 3 5-5 4-4-5zM1118 490l6-4 3 5-5 3-4-4zM1081 465l5-4 4 5-5 4-4-5zM936 469l5-4 4 4-5 4-4-4zM163 424l-5 4-5-5 5-4 5 5zM881 458l4 5-5 3-4-4 5-4zM749 428l-5 3-4-5 5-3 4 5zM1023 463l-3-5 5-4 4 5-6 4zM602 428l4 5-5 3-4-4 5-4zM701 447l-4-5 5-4 4 5-5 4zM742 443l4 4-5 4-3-5 4-3zM333 418l4 4-5 4-4-5 5-3zM599 412l5-4 4 4-5 4-4-4zM288 433l4 5-5 4-1-2-2-3 4-4zM888 443l-5 4-4-5 5-4 4 5zM777 451l5-4 4 5-5 3-4-4zM51 386l4 5-5 3-4-5 5-3zM837 457l4-3 4 4-5 4-3-5zM120 398l-5 4-3-5c4-4 4-4 8 0v1zM683 436l4 5-6 4-3-5 5-4zM370 426l4-4 4 5-4 4-4-5zM286 417l4-4 5 5-5 4-4-5zM985 474l-5 4-4-5 5-4 4 5zM820 436l4-4 4 4-5 4-3-4zM1144 513l-5 4-3-4v-1c5-4 5-4 8 1zM432 434l4-4 4 4-4 4-4-4zM75 414l-6 4-4-5 3-2c2-2 2-2 4 1l1 1 2 1zM247 417l-3-5v-1c4-3 4-3 7 2l-4 4zM826 456l-5 4-4-5 5-4 4 5zM848 438l-5 4-4-5 6-3 3 4zM1022 474l3 5-5 3-4-4 6-4zM330 447l-4-5 5-4 4 5-5 4zM1137 528l4 5-5 4-4-5 5-4zM160 398l4 5-4 4-4-5 4-4zM637 436l3-2 2-2 4 5-5 3-4-4zM52 411c-3 5-4 5-8 0 5-4 4-5 8 0zM268 419l-4-5 5-3 4 4-5 4zM98 396l-4 3-4-4 4-4 4 5zM1099 503l4 5-5 3-4-4 5-4zM376 448l-4 3-4-4 4-4 4 5zM1094 531l-4-5 5-3 4 4-5 4zM1166 516l-6 4-3-5 5-3 4 4zM204 403l2 3 2 2-4 3-4-4 4-4zM114 414l4 4c-3 5-5 5-8 0l2-2 2-2zM315 420l-4 4-4-5 5-3 3 4zM206 429l-5 3-3-5 4-3 4 5zM245 437l-4-4 5-4 3 5-4 3zM177 451l-4-5 2-1c3-3 5-2 6 2l-4 4zM522 444l-4 3-4-4 5-4 3 5zM96 417l-5 3-4-4 5-4 4 5zM262 435h1c4-4 4-4 7 1l-4 3-4-4zM477 434l4 5-4 4-4-5 4-4zM395 425l4 5-5 3-3-4 4-4zM1116 526l4 4-5 3-4-4 5-3zM430 454l4-4 4 5-4 3-4-4zM1087 542l12-1-8 6-4-5zM580 446l3 4-4 4-4-4 5-4zM756 493l-3-5 4-3 4 4-5 4zM803 474l-5 3-3-4 4-4 4 5zM456 440l-4-4 5-4 4 5-5 3zM471 458l5-3 3 4-4 4-4-5zM357 425l-4 3-4-4 5-4 3 5zM1157 539l-3-3c-1-1-1-2 1-2l3-2 4 4-5 3zM497 445l-4-5 5-3 4 4-5 4zM517 459l3 5-4 3-4-4 5-4zM356 445l-5 4-4-4 5-4 4 4zM862 480l-5 4-3-5 4-3 4 4zM723 465l-4 4-3-5 4-3 3 4zM411 431l4-3h1l3 4-4 3-4-4zM955 507l3 4c-4 4-5 4-8-1l2-2 3-1zM1123 511l-5 3-3-4 5-4 3 5zM856 496l3 4-4 4-3-5 4-3zM1037 504l-3-4 4-4 4 5-5 3zM656 458l4-4 4 4-5 4-3-4zM538 449l-3-4 4-4 4 5-5 3zM1001 496l-4 3-4-4 5-4 3 5zM199 445l4 4c-2 1-2 4-4 3-2 0-3-2-3-3-1-2 2-2 3-4zM897 488l-3-4 4-4 4 4-5 4zM225 452l-5 3-3-4 4-4 4 5zM891 504l5-4 3 5-4 3-4-4zM620 450l3 4-4 4-4-4 5-4zM613 474l5-4 3 4-4 4-4-4zM800 494l-4 3-4-5 5-3 3 5zM763 469l-4 4-4-5 5-3 3 4zM309 444l-4-4 1-1c4-3 4-3 7 2l-2 1-2 2zM1038 520l-5 3-3-4 4-3 4 4zM990 515l4-4 4 5-5 3-3-4zM573 470l4-4 4 4-5 4-3-4zM721 485l-4 3-4-4 4-3 4 4zM409 451l5-3 3 4-4 3-4-4zM559 444l3 4-4 3-3-4 4-3zM289 459l-4 3-3-4c4-4 4-4 7 1zM658 475h1l2 3-4 4c-4-3-4-5 1-7zM130 441c4-3 4-3 7 1-3 4-4 4-7-1zM961 491l-5 3-3-3 5-4 3 4zM1058 499l3 4-4 3-3-4 4-3zM699 466l-3-4 4-3 3 4-4 3zM392 453l-3-4 4-3 4 4-5 3zM816 499l-4-4 4-3 4 4-4 3zM561 468l-5 3-3-3 4-4 4 4zM64 435c4-5 4-5 7 1l-3 2-4-3zM871 502l4-4 4 4-4 3-4-3zM676 460l4-4 3 5-4 3-3-4zM921 487l-4 3-3-4 4-3 3 4zM974 493l4-3 1 1 2 3-5 3-2-4zM540 466l-4 3-3-4 4-3 3 4zM741 487l-4 3-4-4 4-3 4 4zM1082 505l-5 3-3-4 4-3 4 4zM874 482l4-4 4 4-4 4-4-4zM815 475l4-3 3 4-4 3-3-4zM496 464l-4-3 4-4 3 4-3 3zM366 467l4-3 4 4-4 3-4-4zM634 476l4-4 3 4c-3 4-4 4-7 0zM643 456l-4 4-3-4 4-3 3 3zM674 480l4-3 3 4-4 3-3-4zM599 456l-4-4 4-4 4 4-4 4zM739 470l-3-3c4-4 4-4 7 0l-4 3zM1078 525l-5 3-3-4 4-3 4 4zM1050 522l4-4 4 4-5 3-3-3zM1018 494l3 4c-5 3-5 3-8-1l3-1 2-2zM776 495l-3-5 4-3 3 4-4 4zM839 498l-4 3-3-4 4-3 3 4zM324 463l4-4 4 4-4 4-4-4zM941 489l-5 3-2-4 4-3 3 4zM454 460l-3-4 4-3 3 4-4 3zM155 448l-3-4 4-3 3 4-4 3zM246 454l-4 3-3-4 4-3 3 4zM432 471l4 4-4 3-4-4 4-3zM842 478l-4 3-3-4 3-3 4 4zM974 517l-4-5 5-3 3 4-4 4zM754 512l-3-4 4-3 3 4-4 3zM911 506l4-3 4 4-4 3-4-4zM90 433l3 4-4 3-3-3 4-4zM518 483l-4 4-3-4 4-3 3 3zM931 508l4-3 3 4-4 3-3-4zM655 502l-3-4 4-3 3 3-4 4zM260 456l4-3 4 4-5 2-3-3zM775 471l4-4 4 5-4 3-4-4zM597 476l-4-4 4-3 4 4-4 3zM42 432l4-3 3 4-4 3-3-4zM1018 518c-4 3-5 3-8-1l4-3 4 4zM694 482l4-3 3 4-4 3-3-4zM955 531l-4 3-3-4 4-3 3 4zM470 479l4-4 3 4-4 3-3-3zM719 505l-4 3-3-4 4-3 3 4zM794 517l-3-4 4-4 3 5-4 3zM615 498l-3-4 3-4 4 4-4 4zM350 462l3 4-4 2-3-4 4-2zM575 486l3 4-3 3-4-3 4-4zM108 439l4-3 3 4-4 3-3-4zM394 470l-3 3-4-3 4-4 3 4zM856 519l-3 4-3-4 4-3 2 3zM307 457l3 3c-2 4-4 5-6 0l3-3zM513 500l2 4-3 3-3-4 4-3zM892 527l-3-3 4-4 3 4-4 3zM408 472l4-3 3 3-4 3-3-3zM679 501l-4 3-3-4 4-3 3 4zM811 515l3-3 3 3-3 3-3-3zM598 492l-4 3-2-3 3-3 3 3zM494 478l3 3-4 4-3-4 4-3zM636 493l3 3-4 3-3-3 4-3zM696 499l3 4-4 3-3-4 4-3zM774 514l-3-3 4-3 3 3-4 3zM735 503l3 4-3 3-3-4 3-3zM453 473l3 4-3 3-4-3 4-4zM833 521l-3-4 4-3 3 4-4 3zM932 525l3 3-2 2-2 1-3-3 4-3zM912 529l-3-4 4-2 3 3-4 3zM974 533c-3 3-3 3-6-1l3-3 3 4zM555 485l3 3-4 3-3-4 4-2zM538 486l-4 3-3-4 4-3 3 4zM889 575l2-6 4 6h-6zM495 502l-4 2-2-4 3-2 3 4zM837 341l-2-3 6-1-4 4zM1152 588l2-5 2 5h-4zM975 539c2 0 3 0 2-2h1l2 4-5-1v-1zM296 341l-2-2v-1h5l-3 3zM273 478l-1-1c0-1 0-3 3-3l-2 4z" class="st1"/>
  <path d="M841 536c1-2 3-2 4-1-1 2-2 2-4 1zM819 338l-2 2-2-2 3-1 1 1zM1227 566l5-3 4-5c1 3 4 6 8 7l-5 3c-2 1-2 3-3 5-2-3-4-6-9-7zM1241 526l2-1c0 2-1 2-2 2v-1z" class="st1"/>
</svg>
