<svg width="56" height="56" viewBox="0 0 56 56" fill="none" xmlns="http://www.w3.org/2000/svg">
<path d="M52 24.27V23.931C52 22.2362 50.6415 20.8804 48.9434 20.8804H46.8377C48.5359 20.8804 49.8943 19.5246 49.8943 17.8298V17.4908C49.8943 15.796 48.5359 14.4402 46.8377 14.4402H43.9849C45.683 14.4402 47.0415 13.0844 47.0415 11.3896V11.0506C47.0415 9.35583 45.683 8 43.9849 8H32.9811C28.4302 8 24.6264 10.7117 23.2679 14.4402H16V32.066H23.7434C23.7434 32.066 26.6642 34.6421 30.8075 37.9638C33.9321 40.4721 37.9396 43.0482 40.4528 47.1835C42.2868 50.1663 50.234 44.8108 41.2679 33.8286H46.8377C48.5359 33.8286 49.8943 32.4727 49.8943 30.7779V30.439C49.8943 28.7442 48.5359 27.3884 46.8377 27.3884H48.9434C50.6415 27.3884 52 26.0325 52 24.27Z" fill="black"/>
<rect x="4" y="12" width="8" height="24" fill="black"/>
</svg>
