<svg width="56" height="56" viewBox="0 0 56 56" fill="none" xmlns="http://www.w3.org/2000/svg">
<path d="M39.9726 16.8C40.2526 16.997 40.6415 17.0593 41.1393 16.9918C42.1141 16.857 42.5341 16.3074 42.3941 15.3482C42.3267 14.8607 42.1504 14.5185 41.8756 14.3215C41.6007 14.1245 41.217 14.057 40.7296 14.1296C40.2319 14.197 39.8793 14.3682 39.6615 14.6378C39.4437 14.9074 39.3711 15.2807 39.4385 15.7681C39.5163 16.2556 39.6926 16.603 39.9726 16.8Z" fill="black"/>
<path d="M28.3526 15.8718C27.8652 15.9393 27.5126 16.1156 27.2844 16.3904C27.0615 16.6704 26.9785 17.0333 27.0459 17.4896C27.1133 17.9563 27.2948 18.3037 27.5956 18.5215C27.8963 18.7393 28.2852 18.817 28.7622 18.7496C29.2393 18.6822 29.5867 18.5059 29.8097 18.2207C30.0326 17.9356 30.1104 17.557 30.043 17.0904C29.9808 16.6341 29.7993 16.3022 29.4986 16.0896C29.203 15.8822 28.8193 15.8096 28.3526 15.8718Z" fill="black"/>
<path d="M50.5349 41.6422V35.8192H51.2504V30.0792H50.5349V22.1822H44.7897V30.0741H40.2423L41.4608 24.3341H39.0445H36.8926H35.726L35.0415 27.5592C34.383 26.7555 33.5689 26.097 32.5941 25.5889C31.2304 24.8785 29.6282 24.5259 27.7926 24.5259C25.9363 24.5259 24.3186 24.8785 22.9393 25.5733C21.9126 26.0918 21.0675 26.7867 20.3934 27.6422V26.7296H14.6482V32.4696H10.1008L11.3193 26.7296H11.3089L11.5889 25.4126L47.2578 20.3778L45.6763 9.17776L35.5134 10.6141L35.7467 12.2733L32.9312 12.6726L32.6978 11.0133L31.9097 11.1274L33.2371 20.5437L30.5823 20.917L30.4371 19.8904C30.2712 20.2792 29.9912 20.6059 29.6023 20.8652C29.2134 21.1296 28.7726 21.2955 28.2749 21.363C27.6319 21.4563 27.0304 21.3681 26.4756 21.1089C25.9208 20.8496 25.4593 20.4348 25.0912 19.8748C24.723 19.3148 24.4845 18.6407 24.3756 17.8578C24.2667 17.0852 24.3134 16.38 24.5104 15.7422C24.7075 15.1044 25.0393 14.5911 25.5008 14.197C25.9623 13.8029 26.5171 13.5592 27.16 13.4711C27.6371 13.4037 28.0882 13.44 28.5186 13.5852C28.9489 13.7304 29.3067 13.9481 29.5919 14.2541L29.203 11.5059L7.41487 14.5755L8.4882 22.1822H6.53857L4.09635 33.6674H4.10672L3.14227 38.2148H3.16301H5.71412H8.87709H8.90301H14.643V46.1896H20.383V41.8859V38.7852V38.2096H24.5312V33.7607C24.5156 33.5896 24.5052 33.4081 24.5052 33.2163C24.5052 32.143 24.78 31.3548 25.3245 30.8415C25.8793 30.3333 26.6986 30.0741 27.7926 30.0741C28.866 30.0741 29.6645 30.3281 30.2038 30.8415C30.7378 31.3548 31.0075 32.143 31.0075 33.2163C31.0075 35.3267 29.9341 36.3844 27.7926 36.3844C27.1445 36.3844 26.5897 36.2911 26.1334 36.1148V38.2148V39.4074V41.803C26.6623 41.8704 27.2171 41.9067 27.7926 41.9067C29.6282 41.9067 31.2304 41.5541 32.5993 40.8385C33.963 40.1281 35.0208 39.1222 35.7623 37.8207C36.1149 37.2037 36.3793 36.5348 36.566 35.8141H39.0289H39.0549H44.7949V41.637H50.5349V41.6422ZM36.9912 13.9637C37.2452 13.3207 37.6652 12.797 38.246 12.3874C38.8267 11.983 39.5371 11.7185 40.3823 11.5992C41.2171 11.48 41.9689 11.5422 42.6326 11.7755C43.3015 12.0089 43.8408 12.403 44.266 12.9422C44.6912 13.4815 44.9556 14.1607 45.0697 14.9644C45.1838 15.7681 45.1112 16.4889 44.8571 17.1318C44.603 17.7696 44.1882 18.2933 43.6126 18.703C43.0371 19.1126 42.3319 19.377 41.4971 19.4963C40.6519 19.6155 39.8949 19.5585 39.226 19.3304C38.5571 19.1022 38.0075 18.7133 37.5875 18.1637C37.1675 17.6141 36.8978 16.94 36.7838 16.1311C36.6645 15.3326 36.7371 14.6067 36.9912 13.9637ZM33.1386 13.5748L35.8349 13.1963L36.7993 20.0407L34.103 20.4192L33.1386 13.5748ZM9.58227 16.1622L12.1178 15.8044L12.4601 17.0489C12.5741 16.5563 12.8126 16.157 13.1756 15.8563C13.5386 15.5504 13.9689 15.3637 14.4667 15.2963C14.8349 15.2444 15.1252 15.26 15.3378 15.3378L15.623 17.3444C15.6489 17.2459 15.6749 17.1474 15.7008 17.0489C15.903 16.4007 16.2349 15.8718 16.6912 15.4674C17.1526 15.0578 17.6971 14.8089 18.3349 14.7207C18.8326 14.6533 19.2993 14.6948 19.7452 14.8504C20.186 15.0059 20.5489 15.2444 20.8289 15.5711L20.6941 14.6015L23.3489 14.2281L24.4171 21.7985L21.7675 22.1718L21.6223 21.1452C21.4563 21.5341 21.1763 21.8607 20.7875 22.12C20.3986 22.3844 19.9578 22.5504 19.46 22.6178C18.8119 22.7111 18.2156 22.6333 17.666 22.3844C17.1163 22.1355 16.6549 21.7415 16.2867 21.1867C15.9186 20.637 15.68 19.9733 15.5712 19.1955C15.4986 18.6874 15.4934 18.2052 15.5556 17.7541C15.1512 17.6504 14.7726 17.6192 14.4149 17.6711C13.2845 17.8318 12.7919 18.4541 12.9475 19.5378L13.4815 23.3385L10.7852 23.717L10.023 18.3244C9.89338 17.5052 9.7482 16.7844 9.58227 16.1622Z" fill="black"/>
<path d="M18.76 19.8074C19.0503 20.0148 19.4444 20.0874 19.9266 20.0148C20.4037 19.9474 20.7511 19.7711 20.9741 19.4859C21.197 19.2008 21.2748 18.8222 21.2074 18.3556C21.14 17.8785 20.9585 17.5363 20.6681 17.3185C20.3726 17.1008 19.9889 17.0282 19.5118 17.0956C19.0452 17.163 18.6978 17.3445 18.4644 17.64C18.2311 17.9356 18.1481 18.3245 18.2155 18.7963C18.2881 19.2682 18.4644 19.6 18.76 19.8074Z" fill="black"/>
</svg>
